<?xml version="1.0" encoding="utf-8" standalone="no"?>
<!DOCTYPE svg PUBLIC "-//W3C//DTD SVG 1.1//EN"
  "http://www.w3.org/Graphics/SVG/1.1/DTD/svg11.dtd">
<!-- Created with matplotlib (https://matplotlib.org/) -->
<svg height="360pt" version="1.1" viewBox="0 0 720 360" width="720pt" xmlns="http://www.w3.org/2000/svg" xmlns:xlink="http://www.w3.org/1999/xlink">
 <defs>
  <style type="text/css">
*{stroke-linecap:butt;stroke-linejoin:round;}
  </style>
 </defs>
 <g id="figure_1">
  <g id="patch_1">
   <path d="M 0 360 
L 720 360 
L 720 0 
L 0 0 
z
" style="fill:#ffffff;"/>
  </g>
  <g id="axes_1">
   <g id="patch_2">
    <path d="M 159.396269 107.168855 
C 159.396269 104.116692 158.742403 101.099649 157.4788 98.32134 
C 156.215196 95.54303 154.370935 93.067391 152.07048 91.061498 
C 149.770025 89.055606 147.066318 87.565621 144.141825 86.6921 
C 141.217332 85.818579 138.139355 85.581624 135.11562 85.997227 
C 132.091885 86.412829 129.191978 87.471425 126.611607 89.101572 
C 124.031235 90.73172 121.829781 92.895903 120.155817 95.448067 
C 118.481852 98.000231 117.3739 100.881642 116.906733 103.89784 
C 116.439566 106.914039 116.623936 109.995612 117.4474 112.934593 
L 138.025593 107.168855 
L 159.396269 107.168855 
z
" style="fill:#ffa500;"/>
   </g>
   <g id="patch_3">
    <path d="M 117.60311 114.067471 
C 118.995907 119.038429 122.143815 123.340185 126.460516 126.17151 
C 130.777217 129.002834 135.976966 130.176307 141.091276 129.473362 
C 146.205587 128.770416 150.895916 126.237583 154.28866 122.34662 
C 157.681404 118.455657 159.551979 113.464127 159.551979 108.301733 
L 138.181304 108.301733 
L 117.60311 114.067471 
z
" style="fill:#808080;"/>
   </g>
   <g id="matplotlib.axis_1"/>
   <g id="matplotlib.axis_2">
    <g id="text_1">
     <!-- Inter- -->
     <defs>
      <path d="M 9.8125 72.90625 
L 19.671875 72.90625 
L 19.671875 0 
L 9.8125 0 
z
" id="DejaVuSans-73"/>
      <path d="M 54.890625 33.015625 
L 54.890625 0 
L 45.90625 0 
L 45.90625 32.71875 
Q 45.90625 40.484375 42.875 44.328125 
Q 39.84375 48.1875 33.796875 48.1875 
Q 26.515625 48.1875 22.3125 43.546875 
Q 18.109375 38.921875 18.109375 30.90625 
L 18.109375 0 
L 9.078125 0 
L 9.078125 54.6875 
L 18.109375 54.6875 
L 18.109375 46.1875 
Q 21.34375 51.125 25.703125 53.5625 
Q 30.078125 56 35.796875 56 
Q 45.21875 56 50.046875 50.171875 
Q 54.890625 44.34375 54.890625 33.015625 
z
" id="DejaVuSans-110"/>
      <path d="M 18.3125 70.21875 
L 18.3125 54.6875 
L 36.8125 54.6875 
L 36.8125 47.703125 
L 18.3125 47.703125 
L 18.3125 18.015625 
Q 18.3125 11.328125 20.140625 9.421875 
Q 21.96875 7.515625 27.59375 7.515625 
L 36.8125 7.515625 
L 36.8125 0 
L 27.59375 0 
Q 17.1875 0 13.234375 3.875 
Q 9.28125 7.765625 9.28125 18.015625 
L 9.28125 47.703125 
L 2.6875 47.703125 
L 2.6875 54.6875 
L 9.28125 54.6875 
L 9.28125 70.21875 
z
" id="DejaVuSans-116"/>
      <path d="M 56.203125 29.59375 
L 56.203125 25.203125 
L 14.890625 25.203125 
Q 15.484375 15.921875 20.484375 11.0625 
Q 25.484375 6.203125 34.421875 6.203125 
Q 39.59375 6.203125 44.453125 7.46875 
Q 49.3125 8.734375 54.109375 11.28125 
L 54.109375 2.78125 
Q 49.265625 0.734375 44.1875 -0.34375 
Q 39.109375 -1.421875 33.890625 -1.421875 
Q 20.796875 -1.421875 13.15625 6.1875 
Q 5.515625 13.8125 5.515625 26.8125 
Q 5.515625 40.234375 12.765625 48.109375 
Q 20.015625 56 32.328125 56 
Q 43.359375 56 49.78125 48.890625 
Q 56.203125 41.796875 56.203125 29.59375 
z
M 47.21875 32.234375 
Q 47.125 39.59375 43.09375 43.984375 
Q 39.0625 48.390625 32.421875 48.390625 
Q 24.90625 48.390625 20.390625 44.140625 
Q 15.875 39.890625 15.1875 32.171875 
z
" id="DejaVuSans-101"/>
      <path d="M 41.109375 46.296875 
Q 39.59375 47.171875 37.8125 47.578125 
Q 36.03125 48 33.890625 48 
Q 26.265625 48 22.1875 43.046875 
Q 18.109375 38.09375 18.109375 28.8125 
L 18.109375 0 
L 9.078125 0 
L 9.078125 54.6875 
L 18.109375 54.6875 
L 18.109375 46.1875 
Q 20.953125 51.171875 25.484375 53.578125 
Q 30.03125 56 36.53125 56 
Q 37.453125 56 38.578125 55.875 
Q 39.703125 55.765625 41.0625 55.515625 
z
" id="DejaVuSans-114"/>
      <path d="M 4.890625 31.390625 
L 31.203125 31.390625 
L 31.203125 23.390625 
L 4.890625 23.390625 
z
" id="DejaVuSans-45"/>
     </defs>
     <g transform="translate(78.451904 127.566935)rotate(-90)scale(0.15 -0.15)">
      <use xlink:href="#DejaVuSans-73"/>
      <use x="29.492188" xlink:href="#DejaVuSans-110"/>
      <use x="92.871094" xlink:href="#DejaVuSans-116"/>
      <use x="132.080078" xlink:href="#DejaVuSans-101"/>
      <use x="193.603516" xlink:href="#DejaVuSans-114"/>
      <use x="228.341797" xlink:href="#DejaVuSans-45"/>
     </g>
     <!-- molecular -->
     <defs>
      <path d="M 52 44.1875 
Q 55.375 50.25 60.0625 53.125 
Q 64.75 56 71.09375 56 
Q 79.640625 56 84.28125 50.015625 
Q 88.921875 44.046875 88.921875 33.015625 
L 88.921875 0 
L 79.890625 0 
L 79.890625 32.71875 
Q 79.890625 40.578125 77.09375 44.375 
Q 74.3125 48.1875 68.609375 48.1875 
Q 61.625 48.1875 57.5625 43.546875 
Q 53.515625 38.921875 53.515625 30.90625 
L 53.515625 0 
L 44.484375 0 
L 44.484375 32.71875 
Q 44.484375 40.625 41.703125 44.40625 
Q 38.921875 48.1875 33.109375 48.1875 
Q 26.21875 48.1875 22.15625 43.53125 
Q 18.109375 38.875 18.109375 30.90625 
L 18.109375 0 
L 9.078125 0 
L 9.078125 54.6875 
L 18.109375 54.6875 
L 18.109375 46.1875 
Q 21.1875 51.21875 25.484375 53.609375 
Q 29.78125 56 35.6875 56 
Q 41.65625 56 45.828125 52.96875 
Q 50 49.953125 52 44.1875 
z
" id="DejaVuSans-109"/>
      <path d="M 30.609375 48.390625 
Q 23.390625 48.390625 19.1875 42.75 
Q 14.984375 37.109375 14.984375 27.296875 
Q 14.984375 17.484375 19.15625 11.84375 
Q 23.34375 6.203125 30.609375 6.203125 
Q 37.796875 6.203125 41.984375 11.859375 
Q 46.1875 17.53125 46.1875 27.296875 
Q 46.1875 37.015625 41.984375 42.703125 
Q 37.796875 48.390625 30.609375 48.390625 
z
M 30.609375 56 
Q 42.328125 56 49.015625 48.375 
Q 55.71875 40.765625 55.71875 27.296875 
Q 55.71875 13.875 49.015625 6.21875 
Q 42.328125 -1.421875 30.609375 -1.421875 
Q 18.84375 -1.421875 12.171875 6.21875 
Q 5.515625 13.875 5.515625 27.296875 
Q 5.515625 40.765625 12.171875 48.375 
Q 18.84375 56 30.609375 56 
z
" id="DejaVuSans-111"/>
      <path d="M 9.421875 75.984375 
L 18.40625 75.984375 
L 18.40625 0 
L 9.421875 0 
z
" id="DejaVuSans-108"/>
      <path d="M 48.78125 52.59375 
L 48.78125 44.1875 
Q 44.96875 46.296875 41.140625 47.34375 
Q 37.3125 48.390625 33.40625 48.390625 
Q 24.65625 48.390625 19.8125 42.84375 
Q 14.984375 37.3125 14.984375 27.296875 
Q 14.984375 17.28125 19.8125 11.734375 
Q 24.65625 6.203125 33.40625 6.203125 
Q 37.3125 6.203125 41.140625 7.25 
Q 44.96875 8.296875 48.78125 10.40625 
L 48.78125 2.09375 
Q 45.015625 0.34375 40.984375 -0.53125 
Q 36.96875 -1.421875 32.421875 -1.421875 
Q 20.0625 -1.421875 12.78125 6.34375 
Q 5.515625 14.109375 5.515625 27.296875 
Q 5.515625 40.671875 12.859375 48.328125 
Q 20.21875 56 33.015625 56 
Q 37.15625 56 41.109375 55.140625 
Q 45.0625 54.296875 48.78125 52.59375 
z
" id="DejaVuSans-99"/>
      <path d="M 8.5 21.578125 
L 8.5 54.6875 
L 17.484375 54.6875 
L 17.484375 21.921875 
Q 17.484375 14.15625 20.5 10.265625 
Q 23.53125 6.390625 29.59375 6.390625 
Q 36.859375 6.390625 41.078125 11.03125 
Q 45.3125 15.671875 45.3125 23.6875 
L 45.3125 54.6875 
L 54.296875 54.6875 
L 54.296875 0 
L 45.3125 0 
L 45.3125 8.40625 
Q 42.046875 3.421875 37.71875 1 
Q 33.40625 -1.421875 27.6875 -1.421875 
Q 18.265625 -1.421875 13.375 4.4375 
Q 8.5 10.296875 8.5 21.578125 
z
M 31.109375 56 
z
" id="DejaVuSans-117"/>
      <path d="M 34.28125 27.484375 
Q 23.390625 27.484375 19.1875 25 
Q 14.984375 22.515625 14.984375 16.5 
Q 14.984375 11.71875 18.140625 8.90625 
Q 21.296875 6.109375 26.703125 6.109375 
Q 34.1875 6.109375 38.703125 11.40625 
Q 43.21875 16.703125 43.21875 25.484375 
L 43.21875 27.484375 
z
M 52.203125 31.203125 
L 52.203125 0 
L 43.21875 0 
L 43.21875 8.296875 
Q 40.140625 3.328125 35.546875 0.953125 
Q 30.953125 -1.421875 24.3125 -1.421875 
Q 15.921875 -1.421875 10.953125 3.296875 
Q 6 8.015625 6 15.921875 
Q 6 25.140625 12.171875 29.828125 
Q 18.359375 34.515625 30.609375 34.515625 
L 43.21875 34.515625 
L 43.21875 35.40625 
Q 43.21875 41.609375 39.140625 45 
Q 35.0625 48.390625 27.6875 48.390625 
Q 23 48.390625 18.546875 47.265625 
Q 14.109375 46.140625 10.015625 43.890625 
L 10.015625 52.203125 
Q 14.9375 54.109375 19.578125 55.046875 
Q 24.21875 56 28.609375 56 
Q 40.484375 56 46.34375 49.84375 
Q 52.203125 43.703125 52.203125 31.203125 
z
" id="DejaVuSans-97"/>
     </defs>
     <g transform="translate(95.248623 144.968107)rotate(-90)scale(0.15 -0.15)">
      <use xlink:href="#DejaVuSans-109"/>
      <use x="97.412109" xlink:href="#DejaVuSans-111"/>
      <use x="158.59375" xlink:href="#DejaVuSans-108"/>
      <use x="186.376953" xlink:href="#DejaVuSans-101"/>
      <use x="247.900391" xlink:href="#DejaVuSans-99"/>
      <use x="302.880859" xlink:href="#DejaVuSans-117"/>
      <use x="366.259766" xlink:href="#DejaVuSans-108"/>
      <use x="394.042969" xlink:href="#DejaVuSans-97"/>
      <use x="455.322266" xlink:href="#DejaVuSans-114"/>
     </g>
    </g>
   </g>
   <g id="text_2">
    <!--  54% -->
    <defs>
     <path id="DejaVuSans-Bold-32"/>
     <path d="M 10.59375 72.90625 
L 57.328125 72.90625 
L 57.328125 59.078125 
L 25.59375 59.078125 
L 25.59375 47.796875 
Q 27.734375 48.390625 29.90625 48.703125 
Q 32.078125 49.03125 34.421875 49.03125 
Q 47.75 49.03125 55.171875 42.359375 
Q 62.59375 35.6875 62.59375 23.78125 
Q 62.59375 11.96875 54.515625 5.265625 
Q 46.4375 -1.421875 32.078125 -1.421875 
Q 25.875 -1.421875 19.796875 -0.21875 
Q 13.71875 0.984375 7.71875 3.421875 
L 7.71875 18.21875 
Q 13.671875 14.796875 19.015625 13.078125 
Q 24.359375 11.375 29.109375 11.375 
Q 35.9375 11.375 39.859375 14.71875 
Q 43.796875 18.0625 43.796875 23.78125 
Q 43.796875 29.546875 39.859375 32.859375 
Q 35.9375 36.1875 29.109375 36.1875 
Q 25.046875 36.1875 20.453125 35.125 
Q 15.875 34.078125 10.59375 31.890625 
z
" id="DejaVuSans-Bold-53"/>
     <path d="M 36.8125 57.421875 
L 16.21875 26.90625 
L 36.8125 26.90625 
z
M 33.6875 72.90625 
L 54.59375 72.90625 
L 54.59375 26.90625 
L 64.984375 26.90625 
L 64.984375 13.28125 
L 54.59375 13.28125 
L 54.59375 0 
L 36.8125 0 
L 36.8125 13.28125 
L 4.5 13.28125 
L 4.5 29.390625 
z
" id="DejaVuSans-Bold-52"/>
     <path d="M 77.484375 30.078125 
Q 74.03125 30.078125 72.125 27.078125 
Q 70.21875 24.078125 70.21875 18.5 
Q 70.21875 12.890625 72.09375 9.890625 
Q 73.96875 6.890625 77.484375 6.890625 
Q 81 6.890625 82.859375 9.890625 
Q 84.71875 12.890625 84.71875 18.5 
Q 84.71875 24.078125 82.828125 27.078125 
Q 80.953125 30.078125 77.484375 30.078125 
z
M 77.484375 38.28125 
Q 86.578125 38.28125 91.796875 33 
Q 97.015625 27.734375 97.015625 18.5 
Q 97.015625 9.28125 91.796875 3.921875 
Q 86.578125 -1.421875 77.484375 -1.421875 
Q 68.40625 -1.421875 63.15625 3.921875 
Q 57.90625 9.28125 57.90625 18.5 
Q 57.90625 27.6875 63.15625 32.984375 
Q 68.40625 38.28125 77.484375 38.28125 
z
M 32.71875 -1.421875 
L 21.921875 -1.421875 
L 67.484375 74.21875 
L 78.328125 74.21875 
z
M 22.703125 74.21875 
Q 31.78125 74.21875 36.984375 68.921875 
Q 42.1875 63.625 42.1875 54.390625 
Q 42.1875 45.171875 36.984375 39.84375 
Q 31.78125 34.515625 22.703125 34.515625 
Q 13.625 34.515625 8.421875 39.84375 
Q 3.21875 45.171875 3.21875 54.390625 
Q 3.21875 63.625 8.421875 68.921875 
Q 13.625 74.21875 22.703125 74.21875 
z
M 22.703125 66.015625 
Q 19.1875 66.015625 17.28125 62.984375 
Q 15.375 59.96875 15.375 54.390625 
Q 15.375 48.78125 17.28125 45.71875 
Q 19.1875 42.671875 22.703125 42.671875 
Q 26.21875 42.671875 28.09375 45.71875 
Q 29.984375 48.78125 29.984375 54.390625 
Q 29.984375 59.96875 28.078125 62.984375 
Q 26.171875 66.015625 22.703125 66.015625 
z
" id="DejaVuSans-Bold-37"/>
    </defs>
    <g style="fill:#ffffff;" transform="translate(123.838116 96.970201)scale(0.090757 -0.090757)">
     <use xlink:href="#DejaVuSans-Bold-32"/>
     <use x="34.814453" xlink:href="#DejaVuSans-Bold-53"/>
     <use x="104.394531" xlink:href="#DejaVuSans-Bold-52"/>
     <use x="173.974609" xlink:href="#DejaVuSans-Bold-37"/>
    </g>
   </g>
   <g id="text_3">
    <!--  46% -->
    <defs>
     <path d="M 36.1875 35.984375 
Q 31.25 35.984375 28.78125 32.78125 
Q 26.3125 29.59375 26.3125 23.1875 
Q 26.3125 16.796875 28.78125 13.59375 
Q 31.25 10.40625 36.1875 10.40625 
Q 41.15625 10.40625 43.625 13.59375 
Q 46.09375 16.796875 46.09375 23.1875 
Q 46.09375 29.59375 43.625 32.78125 
Q 41.15625 35.984375 36.1875 35.984375 
z
M 59.421875 71 
L 59.421875 57.515625 
Q 54.78125 59.71875 50.671875 60.765625 
Q 46.578125 61.8125 42.671875 61.8125 
Q 34.28125 61.8125 29.59375 57.140625 
Q 24.90625 52.484375 24.125 43.3125 
Q 27.34375 45.703125 31.09375 46.890625 
Q 34.859375 48.09375 39.3125 48.09375 
Q 50.484375 48.09375 57.34375 41.546875 
Q 64.203125 35.015625 64.203125 24.421875 
Q 64.203125 12.703125 56.53125 5.640625 
Q 48.875 -1.421875 35.984375 -1.421875 
Q 21.78125 -1.421875 13.984375 8.171875 
Q 6.203125 17.78125 6.203125 35.40625 
Q 6.203125 53.46875 15.3125 63.796875 
Q 24.421875 74.125 40.28125 74.125 
Q 45.3125 74.125 50.046875 73.34375 
Q 54.78125 72.5625 59.421875 71 
z
" id="DejaVuSans-Bold-54"/>
    </defs>
    <g style="fill:#ffffff;" transform="translate(127.485794 123.509033)scale(0.090757 -0.090757)">
     <use xlink:href="#DejaVuSans-Bold-32"/>
     <use x="34.814453" xlink:href="#DejaVuSans-Bold-52"/>
     <use x="104.394531" xlink:href="#DejaVuSans-Bold-54"/>
     <use x="173.974609" xlink:href="#DejaVuSans-Bold-37"/>
    </g>
   </g>
   <g id="text_4">
    <!-- A-minors,  -->
    <defs>
     <path d="M 34.1875 63.1875 
L 20.796875 26.90625 
L 47.609375 26.90625 
z
M 28.609375 72.90625 
L 39.796875 72.90625 
L 67.578125 0 
L 57.328125 0 
L 50.6875 18.703125 
L 17.828125 18.703125 
L 11.1875 0 
L 0.78125 0 
z
" id="DejaVuSans-65"/>
     <path d="M 9.421875 54.6875 
L 18.40625 54.6875 
L 18.40625 0 
L 9.421875 0 
z
M 9.421875 75.984375 
L 18.40625 75.984375 
L 18.40625 64.59375 
L 9.421875 64.59375 
z
" id="DejaVuSans-105"/>
     <path d="M 44.28125 53.078125 
L 44.28125 44.578125 
Q 40.484375 46.53125 36.375 47.5 
Q 32.28125 48.484375 27.875 48.484375 
Q 21.1875 48.484375 17.84375 46.4375 
Q 14.5 44.390625 14.5 40.28125 
Q 14.5 37.15625 16.890625 35.375 
Q 19.28125 33.59375 26.515625 31.984375 
L 29.59375 31.296875 
Q 39.15625 29.25 43.1875 25.515625 
Q 47.21875 21.78125 47.21875 15.09375 
Q 47.21875 7.46875 41.1875 3.015625 
Q 35.15625 -1.421875 24.609375 -1.421875 
Q 20.21875 -1.421875 15.453125 -0.5625 
Q 10.6875 0.296875 5.421875 2 
L 5.421875 11.28125 
Q 10.40625 8.6875 15.234375 7.390625 
Q 20.0625 6.109375 24.8125 6.109375 
Q 31.15625 6.109375 34.5625 8.28125 
Q 37.984375 10.453125 37.984375 14.40625 
Q 37.984375 18.0625 35.515625 20.015625 
Q 33.0625 21.96875 24.703125 23.78125 
L 21.578125 24.515625 
Q 13.234375 26.265625 9.515625 29.90625 
Q 5.8125 33.546875 5.8125 39.890625 
Q 5.8125 47.609375 11.28125 51.796875 
Q 16.75 56 26.8125 56 
Q 31.78125 56 36.171875 55.265625 
Q 40.578125 54.546875 44.28125 53.078125 
z
" id="DejaVuSans-115"/>
     <path d="M 11.71875 12.40625 
L 22.015625 12.40625 
L 22.015625 4 
L 14.015625 -11.625 
L 7.71875 -11.625 
L 11.71875 4 
z
" id="DejaVuSans-44"/>
     <path id="DejaVuSans-32"/>
    </defs>
    <g transform="translate(99.947198 49.203281)scale(0.15 -0.15)">
     <use xlink:href="#DejaVuSans-65"/>
     <use x="66.158203" xlink:href="#DejaVuSans-45"/>
     <use x="102.242188" xlink:href="#DejaVuSans-109"/>
     <use x="199.654297" xlink:href="#DejaVuSans-105"/>
     <use x="227.4375" xlink:href="#DejaVuSans-110"/>
     <use x="290.816406" xlink:href="#DejaVuSans-111"/>
     <use x="351.998047" xlink:href="#DejaVuSans-114"/>
     <use x="393.111328" xlink:href="#DejaVuSans-115"/>
     <use x="445.210938" xlink:href="#DejaVuSans-44"/>
     <use x="476.998047" xlink:href="#DejaVuSans-32"/>
    </g>
    <!-- type I -->
    <defs>
     <path d="M 32.171875 -5.078125 
Q 28.375 -14.84375 24.75 -17.8125 
Q 21.140625 -20.796875 15.09375 -20.796875 
L 7.90625 -20.796875 
L 7.90625 -13.28125 
L 13.1875 -13.28125 
Q 16.890625 -13.28125 18.9375 -11.515625 
Q 21 -9.765625 23.484375 -3.21875 
L 25.09375 0.875 
L 2.984375 54.6875 
L 12.5 54.6875 
L 29.59375 11.921875 
L 46.6875 54.6875 
L 56.203125 54.6875 
z
" id="DejaVuSans-121"/>
     <path d="M 18.109375 8.203125 
L 18.109375 -20.796875 
L 9.078125 -20.796875 
L 9.078125 54.6875 
L 18.109375 54.6875 
L 18.109375 46.390625 
Q 20.953125 51.265625 25.265625 53.625 
Q 29.59375 56 35.59375 56 
Q 45.5625 56 51.78125 48.09375 
Q 58.015625 40.1875 58.015625 27.296875 
Q 58.015625 14.40625 51.78125 6.484375 
Q 45.5625 -1.421875 35.59375 -1.421875 
Q 29.59375 -1.421875 25.265625 0.953125 
Q 20.953125 3.328125 18.109375 8.203125 
z
M 48.6875 27.296875 
Q 48.6875 37.203125 44.609375 42.84375 
Q 40.53125 48.484375 33.40625 48.484375 
Q 26.265625 48.484375 22.1875 42.84375 
Q 18.109375 37.203125 18.109375 27.296875 
Q 18.109375 17.390625 22.1875 11.75 
Q 26.265625 6.109375 33.40625 6.109375 
Q 40.53125 6.109375 44.609375 11.75 
Q 48.6875 17.390625 48.6875 27.296875 
z
" id="DejaVuSans-112"/>
    </defs>
    <g transform="translate(116.751886 66)scale(0.15 -0.15)">
     <use xlink:href="#DejaVuSans-116"/>
     <use x="39.208984" xlink:href="#DejaVuSans-121"/>
     <use x="98.388672" xlink:href="#DejaVuSans-112"/>
     <use x="161.865234" xlink:href="#DejaVuSans-101"/>
     <use x="223.388672" xlink:href="#DejaVuSans-32"/>
     <use x="255.175781" xlink:href="#DejaVuSans-73"/>
    </g>
   </g>
  </g>
  <g id="axes_2">
   <g id="patch_4">
    <path d="M 272.147125 107.164497 
C 272.147125 104.626993 271.628656 102.116043 270.623602 99.786067 
C 269.618548 97.456091 268.147945 95.355851 266.302232 93.614511 
C 264.456519 91.87317 262.274325 90.527173 259.889852 89.659296 
C 257.505379 88.791418 254.96853 88.419825 252.43532 88.567367 
C 249.90211 88.71491 247.425554 89.378501 245.157959 90.51733 
C 242.890363 91.656159 240.879185 93.246393 239.248109 95.190233 
C 237.617033 97.134073 236.400196 99.390838 235.672432 101.82174 
C 234.944667 104.252641 234.721207 106.806804 235.015793 109.327149 
L 253.518479 107.164497 
L 272.147125 107.164497 
z
" style="fill:#ffa500;"/>
   </g>
   <g id="patch_5">
    <path d="M 235.082283 110.468744 
C 235.633905 115.188169 237.970805 119.522222 241.610706 122.576462 
C 245.250606 125.630701 249.924614 127.179499 254.668128 126.903221 
C 259.411642 126.626943 263.874242 124.545999 267.134955 121.089844 
C 270.395669 117.63369 272.213615 113.057644 272.213615 108.306091 
L 253.584969 108.306091 
L 235.082283 110.468744 
z
" style="fill:#808080;"/>
   </g>
   <g id="matplotlib.axis_3"/>
   <g id="matplotlib.axis_4"/>
   <g id="text_5">
    <!--  52% -->
    <defs>
     <path d="M 28.8125 13.8125 
L 60.890625 13.8125 
L 60.890625 0 
L 7.90625 0 
L 7.90625 13.8125 
L 34.515625 37.3125 
Q 38.09375 40.53125 39.796875 43.609375 
Q 41.5 46.6875 41.5 50 
Q 41.5 55.125 38.0625 58.25 
Q 34.625 61.375 28.90625 61.375 
Q 24.515625 61.375 19.28125 59.5 
Q 14.0625 57.625 8.109375 53.90625 
L 8.109375 69.921875 
Q 14.453125 72.015625 20.65625 73.109375 
Q 26.859375 74.21875 32.8125 74.21875 
Q 45.90625 74.21875 53.15625 68.453125 
Q 60.40625 62.703125 60.40625 52.390625 
Q 60.40625 46.4375 57.328125 41.28125 
Q 54.25 36.140625 44.390625 27.484375 
z
" id="DejaVuSans-Bold-50"/>
    </defs>
    <g style="fill:#ffffff;" transform="translate(240.469947 98.501915)scale(0.090444 -0.090444)">
     <use xlink:href="#DejaVuSans-Bold-32"/>
     <use x="34.814453" xlink:href="#DejaVuSans-Bold-53"/>
     <use x="104.394531" xlink:href="#DejaVuSans-Bold-50"/>
     <use x="173.974609" xlink:href="#DejaVuSans-Bold-37"/>
    </g>
   </g>
   <g id="text_6">
    <!--  48% -->
    <defs>
     <path d="M 34.8125 32.625 
Q 29.546875 32.625 26.703125 29.734375 
Q 23.875 26.859375 23.875 21.484375 
Q 23.875 16.109375 26.703125 13.25 
Q 29.546875 10.40625 34.8125 10.40625 
Q 40.046875 10.40625 42.828125 13.25 
Q 45.609375 16.109375 45.609375 21.484375 
Q 45.609375 26.90625 42.828125 29.765625 
Q 40.046875 32.625 34.8125 32.625 
z
M 21.09375 38.8125 
Q 14.453125 40.828125 11.078125 44.96875 
Q 7.71875 49.125 7.71875 55.328125 
Q 7.71875 64.546875 14.59375 69.375 
Q 21.484375 74.21875 34.8125 74.21875 
Q 48.046875 74.21875 54.921875 69.40625 
Q 61.8125 64.59375 61.8125 55.328125 
Q 61.8125 49.125 58.421875 44.96875 
Q 55.03125 40.828125 48.390625 38.8125 
Q 55.8125 36.765625 59.59375 32.15625 
Q 63.375 27.546875 63.375 20.515625 
Q 63.375 9.671875 56.171875 4.125 
Q 48.96875 -1.421875 34.8125 -1.421875 
Q 20.609375 -1.421875 13.359375 4.125 
Q 6.109375 9.671875 6.109375 20.515625 
Q 6.109375 27.546875 9.890625 32.15625 
Q 13.671875 36.765625 21.09375 38.8125 
z
M 25.484375 53.421875 
Q 25.484375 49.078125 27.90625 46.734375 
Q 30.328125 44.390625 34.8125 44.390625 
Q 39.203125 44.390625 41.59375 46.734375 
Q 44 49.078125 44 53.421875 
Q 44 57.765625 41.59375 60.078125 
Q 39.203125 62.40625 34.8125 62.40625 
Q 30.328125 62.40625 27.90625 60.0625 
Q 25.484375 57.71875 25.484375 53.421875 
z
" id="DejaVuSans-Bold-56"/>
    </defs>
    <g style="fill:#ffffff;" transform="translate(241.836228 121.960065)scale(0.090444 -0.090444)">
     <use xlink:href="#DejaVuSans-Bold-32"/>
     <use x="34.814453" xlink:href="#DejaVuSans-Bold-52"/>
     <use x="104.394531" xlink:href="#DejaVuSans-Bold-56"/>
     <use x="173.974609" xlink:href="#DejaVuSans-Bold-37"/>
    </g>
   </g>
   <g id="text_7">
    <!-- A-minors,  -->
    <g transform="translate(215.395474 49.203281)scale(0.15 -0.15)">
     <use xlink:href="#DejaVuSans-65"/>
     <use x="66.158203" xlink:href="#DejaVuSans-45"/>
     <use x="102.242188" xlink:href="#DejaVuSans-109"/>
     <use x="199.654297" xlink:href="#DejaVuSans-105"/>
     <use x="227.4375" xlink:href="#DejaVuSans-110"/>
     <use x="290.816406" xlink:href="#DejaVuSans-111"/>
     <use x="351.998047" xlink:href="#DejaVuSans-114"/>
     <use x="393.111328" xlink:href="#DejaVuSans-115"/>
     <use x="445.210938" xlink:href="#DejaVuSans-44"/>
     <use x="476.998047" xlink:href="#DejaVuSans-32"/>
    </g>
    <!-- type II -->
    <g transform="translate(229.987662 66)scale(0.15 -0.15)">
     <use xlink:href="#DejaVuSans-116"/>
     <use x="39.208984" xlink:href="#DejaVuSans-121"/>
     <use x="98.388672" xlink:href="#DejaVuSans-112"/>
     <use x="161.865234" xlink:href="#DejaVuSans-101"/>
     <use x="223.388672" xlink:href="#DejaVuSans-32"/>
     <use x="255.175781" xlink:href="#DejaVuSans-73"/>
     <use x="284.667969" xlink:href="#DejaVuSans-73"/>
    </g>
   </g>
  </g>
  <g id="axes_3">
   <g id="patch_6">
    <path d="M 394.119303 107.180023 
C 394.119303 101.591561 392.24417 96.161514 388.79572 91.763889 
C 385.34727 87.366264 380.52101 84.250379 375.09376 82.917758 
C 369.66651 81.585138 363.945964 82.111333 358.852885 84.41165 
C 353.759805 86.711967 349.58294 90.65599 346.994584 95.608902 
L 369.136343 107.180023 
L 394.119303 107.180023 
z
" style="fill:#ffa500;"/>
   </g>
   <g id="patch_7">
    <path d="M 346.721899 96.719443 
C 344.967639 100.076283 343.999513 103.788518 343.890959 107.574547 
C 343.782406 111.360577 344.536243 115.122184 346.095284 118.574023 
C 347.654326 122.025861 349.978128 125.078385 352.890413 127.500036 
C 355.802699 129.921688 359.227917 131.649645 362.90624 132.55283 
C 366.584563 133.456014 370.420568 133.510996 374.123265 132.713604 
C 377.825963 131.916212 381.299298 130.287132 384.279792 127.949942 
C 387.260286 125.612752 389.67062 122.628084 391.327951 119.222345 
C 392.985283 115.816607 393.846618 112.07815 393.846618 108.290565 
L 368.863657 108.290565 
L 346.721899 96.719443 
z
" style="fill:#808080;"/>
   </g>
   <g id="matplotlib.axis_5"/>
   <g id="matplotlib.axis_6"/>
   <g id="text_8">
    <!--  42% -->
    <g style="fill:#ffffff;" transform="translate(360.218548 95.137203)scale(0.091127 -0.091127)">
     <use xlink:href="#DejaVuSans-Bold-32"/>
     <use x="34.814453" xlink:href="#DejaVuSans-Bold-52"/>
     <use x="104.394531" xlink:href="#DejaVuSans-Bold-50"/>
     <use x="173.974609" xlink:href="#DejaVuSans-Bold-37"/>
    </g>
   </g>
   <g id="text_9">
    <!--  58% -->
    <g style="fill:#ffffff;" transform="translate(352.796962 125.362462)scale(0.091127 -0.091127)">
     <use xlink:href="#DejaVuSans-Bold-32"/>
     <use x="34.814453" xlink:href="#DejaVuSans-Bold-53"/>
     <use x="104.394531" xlink:href="#DejaVuSans-Bold-56"/>
     <use x="173.974609" xlink:href="#DejaVuSans-Bold-37"/>
    </g>
   </g>
   <g id="text_10">
    <!-- A-minors,  -->
    <g transform="translate(330.84375 49.203281)scale(0.15 -0.15)">
     <use xlink:href="#DejaVuSans-65"/>
     <use x="66.158203" xlink:href="#DejaVuSans-45"/>
     <use x="102.242188" xlink:href="#DejaVuSans-109"/>
     <use x="199.654297" xlink:href="#DejaVuSans-105"/>
     <use x="227.4375" xlink:href="#DejaVuSans-110"/>
     <use x="290.816406" xlink:href="#DejaVuSans-111"/>
     <use x="351.998047" xlink:href="#DejaVuSans-114"/>
     <use x="393.111328" xlink:href="#DejaVuSans-115"/>
     <use x="445.210938" xlink:href="#DejaVuSans-44"/>
     <use x="476.998047" xlink:href="#DejaVuSans-32"/>
    </g>
    <!-- type X -->
    <defs>
     <path d="M 6.296875 72.90625 
L 16.890625 72.90625 
L 35.015625 45.796875 
L 53.21875 72.90625 
L 63.8125 72.90625 
L 40.375 37.890625 
L 65.375 0 
L 54.78125 0 
L 34.28125 31 
L 13.625 0 
L 2.984375 0 
L 29 38.921875 
z
" id="DejaVuSans-88"/>
    </defs>
    <g transform="translate(344.723437 66)scale(0.15 -0.15)">
     <use xlink:href="#DejaVuSans-116"/>
     <use x="39.208984" xlink:href="#DejaVuSans-121"/>
     <use x="98.388672" xlink:href="#DejaVuSans-112"/>
     <use x="161.865234" xlink:href="#DejaVuSans-101"/>
     <use x="223.388672" xlink:href="#DejaVuSans-32"/>
     <use x="255.175781" xlink:href="#DejaVuSans-88"/>
    </g>
   </g>
  </g>
  <g id="axes_4">
   <g id="patch_8">
    <path d="M 513.016696 107.164595 
C 513.016696 99.900796 510.242972 92.904247 505.265859 87.613584 
C 500.288746 82.32292 493.47448 79.12745 486.224216 78.68423 
C 478.973952 78.241009 471.821193 80.582651 466.236696 85.227665 
C 460.652198 89.87268 457.046892 96.479268 456.162102 103.688978 
L 484.483164 107.164595 
L 513.016696 107.164595 
z
" style="fill:#ffa500;"/>
   </g>
   <g id="patch_9">
    <path d="M 456.092326 104.830377 
C 455.618052 108.694996 455.939793 112.616108 457.037693 116.351725 
C 458.135593 120.087342 459.986592 123.559004 462.476459 126.552461 
C 464.966325 129.545918 468.042763 131.998298 471.515913 133.758254 
C 474.989063 135.518211 478.785978 136.548779 482.672336 136.786359 
C 486.558693 137.023938 490.452867 136.463539 494.114532 135.139746 
C 497.776197 133.815953 501.128446 131.756569 503.964399 129.088689 
C 506.800353 126.420808 509.060445 123.200464 510.605199 119.626396 
C 512.149952 116.052329 512.94692 112.199606 512.94692 108.305993 
L 484.413388 108.305993 
L 456.092326 104.830377 
z
" style="fill:#808080;"/>
   </g>
   <g id="matplotlib.axis_7"/>
   <g id="matplotlib.axis_8"/>
   <g id="text_11">
    <!--  48% -->
    <g style="fill:#ffffff;" transform="translate(472.870889 92.624059)scale(0.092328 -0.092328)">
     <use xlink:href="#DejaVuSans-Bold-32"/>
     <use x="34.814453" xlink:href="#DejaVuSans-Bold-52"/>
     <use x="104.394531" xlink:href="#DejaVuSans-Bold-56"/>
     <use x="173.974609" xlink:href="#DejaVuSans-Bold-37"/>
    </g>
   </g>
   <g id="text_12">
    <!--  52% -->
    <g style="fill:#ffffff;" transform="translate(470.711851 127.941895)scale(0.092328 -0.092328)">
     <use xlink:href="#DejaVuSans-Bold-32"/>
     <use x="34.814453" xlink:href="#DejaVuSans-Bold-53"/>
     <use x="104.394531" xlink:href="#DejaVuSans-Bold-50"/>
     <use x="173.974609" xlink:href="#DejaVuSans-Bold-37"/>
    </g>
   </g>
   <g id="text_13">
    <!-- A-minors, -->
    <g transform="translate(448.67562 49.203281)scale(0.15 -0.15)">
     <use xlink:href="#DejaVuSans-65"/>
     <use x="66.158203" xlink:href="#DejaVuSans-45"/>
     <use x="102.242188" xlink:href="#DejaVuSans-109"/>
     <use x="199.654297" xlink:href="#DejaVuSans-105"/>
     <use x="227.4375" xlink:href="#DejaVuSans-110"/>
     <use x="290.816406" xlink:href="#DejaVuSans-111"/>
     <use x="351.998047" xlink:href="#DejaVuSans-114"/>
     <use x="393.111328" xlink:href="#DejaVuSans-115"/>
     <use x="445.210938" xlink:href="#DejaVuSans-44"/>
    </g>
    <!-- total -->
    <g transform="translate(467.299057 66)scale(0.15 -0.15)">
     <use xlink:href="#DejaVuSans-116"/>
     <use x="39.208984" xlink:href="#DejaVuSans-111"/>
     <use x="100.390625" xlink:href="#DejaVuSans-116"/>
     <use x="139.599609" xlink:href="#DejaVuSans-97"/>
     <use x="200.878906" xlink:href="#DejaVuSans-108"/>
    </g>
   </g>
  </g>
  <g id="axes_5">
   <g id="patch_10">
    <path d="M 628.76132 107.269249 
C 628.76132 102.716326 627.671596 98.228844 625.5835 94.182986 
C 623.495405 90.137129 620.468962 86.6492 616.757879 84.011594 
C 613.046796 81.373987 608.757752 79.662524 604.250299 79.020676 
C 599.742845 78.378829 595.146554 78.825047 590.846733 80.321925 
L 600.227787 107.269249 
L 628.76132 107.269249 
z
" style="fill:#ffa500;"/>
   </g>
   <g id="patch_11">
    <path d="M 590.184262 81.254015 
C 585.238863 82.975635 580.861533 86.025859 577.533885 90.069089 
C 574.206237 94.112318 572.054958 98.994622 571.316743 104.178828 
C 570.578528 109.363033 571.281481 114.651771 573.348259 119.46315 
C 575.415038 124.27453 578.766957 128.425376 583.035225 131.458994 
C 587.303492 134.492613 592.325609 136.29351 597.54902 136.663542 
C 602.772431 137.033575 607.998274 135.958656 612.651579 133.557052 
C 617.304884 131.155448 621.208494 127.518592 623.932915 123.046627 
C 626.657337 118.574662 628.098848 113.43784 628.098848 108.201339 
L 599.565316 108.201339 
L 590.184262 81.254015 
z
" style="fill:#808080;"/>
   </g>
   <g id="matplotlib.axis_9"/>
   <g id="matplotlib.axis_10"/>
   <g id="text_14">
    <!--  30% -->
    <defs>
     <path d="M 46.578125 39.3125 
Q 53.953125 37.40625 57.78125 32.6875 
Q 61.625 27.984375 61.625 20.703125 
Q 61.625 9.859375 53.3125 4.21875 
Q 45.015625 -1.421875 29.109375 -1.421875 
Q 23.484375 -1.421875 17.84375 -0.515625 
Q 12.203125 0.390625 6.6875 2.203125 
L 6.6875 16.703125 
Q 11.96875 14.0625 17.15625 12.71875 
Q 22.359375 11.375 27.390625 11.375 
Q 34.859375 11.375 38.84375 13.953125 
Q 42.828125 16.546875 42.828125 21.390625 
Q 42.828125 26.375 38.75 28.9375 
Q 34.671875 31.5 26.703125 31.5 
L 19.1875 31.5 
L 19.1875 43.609375 
L 27.09375 43.609375 
Q 34.1875 43.609375 37.640625 45.828125 
Q 41.109375 48.046875 41.109375 52.59375 
Q 41.109375 56.78125 37.734375 59.078125 
Q 34.375 61.375 28.21875 61.375 
Q 23.6875 61.375 19.046875 60.34375 
Q 14.40625 59.328125 9.8125 57.328125 
L 9.8125 71.09375 
Q 15.375 72.65625 20.84375 73.4375 
Q 26.3125 74.21875 31.59375 74.21875 
Q 45.796875 74.21875 52.84375 69.546875 
Q 59.90625 64.890625 59.90625 55.515625 
Q 59.90625 49.125 56.53125 45.046875 
Q 53.171875 40.96875 46.578125 39.3125 
z
" id="DejaVuSans-Bold-51"/>
     <path d="M 46 36.53125 
Q 46 50.203125 43.4375 55.78125 
Q 40.875 61.375 34.8125 61.375 
Q 28.765625 61.375 26.171875 55.78125 
Q 23.578125 50.203125 23.578125 36.53125 
Q 23.578125 22.703125 26.171875 17.03125 
Q 28.765625 11.375 34.8125 11.375 
Q 40.828125 11.375 43.40625 17.03125 
Q 46 22.703125 46 36.53125 
z
M 64.796875 36.375 
Q 64.796875 18.265625 56.984375 8.421875 
Q 49.171875 -1.421875 34.8125 -1.421875 
Q 20.40625 -1.421875 12.59375 8.421875 
Q 4.78125 18.265625 4.78125 36.375 
Q 4.78125 54.546875 12.59375 64.375 
Q 20.40625 74.21875 34.8125 74.21875 
Q 49.171875 74.21875 56.984375 64.375 
Q 64.796875 54.546875 64.796875 36.375 
z
" id="DejaVuSans-Bold-48"/>
    </defs>
    <g style="fill:#ffffff;" transform="translate(597.570139 95.845994)scale(0.091736 -0.091736)">
     <use xlink:href="#DejaVuSans-Bold-32"/>
     <use x="34.814453" xlink:href="#DejaVuSans-Bold-51"/>
     <use x="104.394531" xlink:href="#DejaVuSans-Bold-48"/>
     <use x="173.974609" xlink:href="#DejaVuSans-Bold-37"/>
    </g>
   </g>
   <g id="text_15">
    <!--  70% -->
    <defs>
     <path d="M 6.6875 72.90625 
L 61.625 72.90625 
L 61.625 62.3125 
L 33.203125 0 
L 14.890625 0 
L 41.796875 59.078125 
L 6.6875 59.078125 
z
" id="DejaVuSans-Bold-55"/>
    </defs>
    <g style="fill:#ffffff;" transform="translate(577.071558 124.68727)scale(0.091736 -0.091736)">
     <use xlink:href="#DejaVuSans-Bold-32"/>
     <use x="34.814453" xlink:href="#DejaVuSans-Bold-55"/>
     <use x="104.394531" xlink:href="#DejaVuSans-Bold-48"/>
     <use x="173.974609" xlink:href="#DejaVuSans-Bold-37"/>
    </g>
   </g>
   <g id="text_16">
    <!-- A-minor  -->
    <g transform="translate(568.030927 49.203281)scale(0.15 -0.15)">
     <use xlink:href="#DejaVuSans-65"/>
     <use x="66.158203" xlink:href="#DejaVuSans-45"/>
     <use x="102.242188" xlink:href="#DejaVuSans-109"/>
     <use x="199.654297" xlink:href="#DejaVuSans-105"/>
     <use x="227.4375" xlink:href="#DejaVuSans-110"/>
     <use x="290.816406" xlink:href="#DejaVuSans-111"/>
     <use x="351.998047" xlink:href="#DejaVuSans-114"/>
     <use x="393.111328" xlink:href="#DejaVuSans-32"/>
    </g>
    <!-- motifs -->
    <defs>
     <path d="M 37.109375 75.984375 
L 37.109375 68.5 
L 28.515625 68.5 
Q 23.6875 68.5 21.796875 66.546875 
Q 19.921875 64.59375 19.921875 59.515625 
L 19.921875 54.6875 
L 34.71875 54.6875 
L 34.71875 47.703125 
L 19.921875 47.703125 
L 19.921875 0 
L 10.890625 0 
L 10.890625 47.703125 
L 2.296875 47.703125 
L 2.296875 54.6875 
L 10.890625 54.6875 
L 10.890625 58.5 
Q 10.890625 67.625 15.140625 71.796875 
Q 19.390625 75.984375 28.609375 75.984375 
z
" id="DejaVuSans-102"/>
    </defs>
    <g transform="translate(576.430927 66)scale(0.15 -0.15)">
     <use xlink:href="#DejaVuSans-109"/>
     <use x="97.412109" xlink:href="#DejaVuSans-111"/>
     <use x="158.59375" xlink:href="#DejaVuSans-116"/>
     <use x="197.802734" xlink:href="#DejaVuSans-105"/>
     <use x="225.585938" xlink:href="#DejaVuSans-102"/>
     <use x="260.791016" xlink:href="#DejaVuSans-115"/>
    </g>
   </g>
  </g>
  <g id="axes_6">
   <g id="patch_12">
    <path d="M 170.090426 192.986345 
C 170.090426 187.515774 168.697953 182.134175 166.044607 177.350151 
C 163.391261 172.566126 159.563347 168.535286 154.922634 165.638578 
C 150.28192 162.741869 144.979357 161.073514 139.516077 160.791184 
C 134.052797 160.508854 128.606505 161.621733 123.691919 164.024646 
C 118.777334 166.427558 114.554312 170.042344 111.421962 174.527377 
C 108.289612 179.01241 106.34982 184.221806 105.785913 189.663235 
C 105.222006 195.104663 106.052325 200.601131 108.198399 205.633179 
C 110.344473 210.665227 113.736496 215.069177 118.053896 218.42882 
L 137.852304 192.986345 
L 170.090426 192.986345 
z
" style="fill:#ffa500;"/>
   </g>
   <g id="patch_13">
    <path d="M 118.556184 219.45613 
C 123.319136 223.162486 129.028499 225.457944 135.03148 226.080046 
C 141.034461 226.702149 147.093206 225.626246 152.514974 222.975356 
C 157.936742 220.324465 162.506709 216.20362 165.702357 211.083988 
C 168.898004 205.964357 170.592713 200.048791 170.592714 194.013661 
L 138.354592 194.013655 
L 118.556184 219.45613 
z
" style="fill:#808080;"/>
   </g>
   <g id="matplotlib.axis_11"/>
   <g id="matplotlib.axis_12">
    <g id="text_17">
     <!-- Intra- -->
     <g transform="translate(78.451904 213.791016)rotate(-90)scale(0.15 -0.15)">
      <use xlink:href="#DejaVuSans-73"/>
      <use x="29.492188" xlink:href="#DejaVuSans-110"/>
      <use x="92.871094" xlink:href="#DejaVuSans-116"/>
      <use x="132.080078" xlink:href="#DejaVuSans-114"/>
      <use x="173.193359" xlink:href="#DejaVuSans-97"/>
      <use x="234.472656" xlink:href="#DejaVuSans-45"/>
     </g>
     <!-- molecular -->
     <g transform="translate(95.248623 230.732812)rotate(-90)scale(0.15 -0.15)">
      <use xlink:href="#DejaVuSans-109"/>
      <use x="97.412109" xlink:href="#DejaVuSans-111"/>
      <use x="158.59375" xlink:href="#DejaVuSans-108"/>
      <use x="186.376953" xlink:href="#DejaVuSans-101"/>
      <use x="247.900391" xlink:href="#DejaVuSans-99"/>
      <use x="302.880859" xlink:href="#DejaVuSans-117"/>
      <use x="366.259766" xlink:href="#DejaVuSans-108"/>
      <use x="394.042969" xlink:href="#DejaVuSans-97"/>
      <use x="455.322266" xlink:href="#DejaVuSans-114"/>
     </g>
    </g>
   </g>
   <g id="text_18">
    <!--  64% -->
    <g style="fill:#ffffff;" transform="translate(116.126237 178.272332)scale(0.096508 -0.096508)">
     <use xlink:href="#DejaVuSans-Bold-32"/>
     <use x="34.814453" xlink:href="#DejaVuSans-Bold-54"/>
     <use x="104.394531" xlink:href="#DejaVuSans-Bold-52"/>
     <use x="173.974609" xlink:href="#DejaVuSans-Bold-37"/>
    </g>
   </g>
   <g id="text_19">
    <!--  36% -->
    <g style="fill:#ffffff;" transform="translate(133.620985 214.053682)scale(0.096508 -0.096508)">
     <use xlink:href="#DejaVuSans-Bold-32"/>
     <use x="34.814453" xlink:href="#DejaVuSans-Bold-51"/>
     <use x="104.394531" xlink:href="#DejaVuSans-Bold-54"/>
     <use x="173.974609" xlink:href="#DejaVuSans-Bold-37"/>
    </g>
   </g>
  </g>
  <g id="axes_7">
   <g id="patch_14">
    <path d="M 276.658246 193.206986 
C 276.658246 190.641484 276.239867 188.093069 275.419607 185.662231 
C 274.599347 183.231394 273.388132 180.950512 271.833724 178.909529 
C 270.279316 176.868546 268.402419 175.094646 266.277045 173.657781 
C 264.151671 172.220916 261.806129 171.140223 259.332912 170.458318 
C 256.859695 169.776414 254.291744 169.50238 251.730324 169.647022 
C 249.168903 169.791665 246.648129 170.353058 244.267405 171.309063 
C 241.88668 172.265068 239.677714 173.602953 237.727615 175.269959 
C 235.777516 176.936965 234.112257 178.910889 232.797505 181.113893 
C 231.482754 183.316897 230.536022 185.719637 229.994641 188.227366 
C 229.453261 190.735095 229.324443 193.31441 229.613269 195.863602 
C 229.902094 198.412793 230.604715 200.897906 231.693424 203.220945 
C 232.782134 205.543983 234.242431 207.674005 236.016732 209.527017 
C 237.791033 211.380029 239.855705 212.93135 242.12933 214.119805 
C 244.402955 215.30826 246.85525 216.11802 249.389513 216.517154 
C 251.923776 216.916288 254.506252 216.899479 257.035104 216.46739 
C 259.563957 216.035301 262.005504 215.193687 264.263466 213.975737 
L 253.060748 193.206986 
L 276.658246 193.206986 
z
" style="fill:#ffa500;"/>
   </g>
   <g id="patch_15">
    <path d="M 265.245418 214.561765 
C 268.992702 212.540471 272.123998 209.542183 274.305942 205.886108 
C 276.487886 202.230033 277.640198 198.050688 277.640198 193.793017 
L 254.0427 193.793014 
L 265.245418 214.561765 
z
" style="fill:#808080;"/>
   </g>
   <g id="matplotlib.axis_13"/>
   <g id="matplotlib.axis_14"/>
   <g id="text_20">
    <!--  83% -->
    <g style="fill:#ffffff;" transform="translate(228.156799 188.516747)scale(0.092978 -0.092978)">
     <use xlink:href="#DejaVuSans-Bold-32"/>
     <use x="34.814453" xlink:href="#DejaVuSans-Bold-56"/>
     <use x="104.394531" xlink:href="#DejaVuSans-Bold-51"/>
     <use x="173.974609" xlink:href="#DejaVuSans-Bold-37"/>
    </g>
   </g>
   <g id="text_21">
    <!--  17% -->
    <defs>
     <path d="M 11.71875 12.984375 
L 28.328125 12.984375 
L 28.328125 60.109375 
L 11.28125 56.59375 
L 11.28125 69.390625 
L 28.21875 72.90625 
L 46.09375 72.90625 
L 46.09375 12.984375 
L 62.703125 12.984375 
L 62.703125 0 
L 11.71875 0 
z
" id="DejaVuSans-Bold-49"/>
    </defs>
    <g style="fill:#ffffff;" transform="translate(253.454642 203.614488)scale(0.092978 -0.092978)">
     <use xlink:href="#DejaVuSans-Bold-32"/>
     <use x="34.814453" xlink:href="#DejaVuSans-Bold-49"/>
     <use x="104.394531" xlink:href="#DejaVuSans-Bold-55"/>
     <use x="173.974609" xlink:href="#DejaVuSans-Bold-37"/>
    </g>
   </g>
  </g>
  <g id="axes_8">
   <g id="patch_16">
    <path d="M 402.889161 192.962068 
C 402.889161 187.492758 401.572665 182.102959 399.051262 177.249519 
C 396.529859 172.39608 392.876859 168.220115 388.401896 165.075586 
C 383.926933 161.931057 378.760119 159.909393 373.339401 159.181953 
C 367.918683 158.454513 362.40167 159.042448 357.255994 160.895923 
C 352.110318 162.749398 347.485591 165.814524 343.773812 169.831494 
C 340.062033 173.848464 337.371124 178.700484 335.92917 183.97629 
C 334.487216 189.252095 334.336142 194.798289 335.488755 200.144768 
C 336.641368 205.491247 339.064154 210.48256 342.551754 214.695634 
L 368.806237 192.962068 
L 402.889161 192.962068 
z
" style="fill:#ffa500;"/>
   </g>
   <g id="patch_17">
    <path d="M 342.939281 215.771498 
C 347.411167 221.173606 353.443218 225.06609 360.207985 226.914999 
C 366.972752 228.763908 374.146094 228.480648 380.744006 226.104077 
C 387.341918 223.727505 393.048254 219.371498 397.080246 213.633591 
C 401.112238 207.895684 403.276688 201.050815 403.276688 194.037932 
L 369.193763 194.037932 
L 342.939281 215.771498 
z
" style="fill:#808080;"/>
   </g>
   <g id="matplotlib.axis_15"/>
   <g id="matplotlib.axis_16"/>
   <g id="text_22">
    <!--  61% -->
    <g style="fill:#ffffff;" transform="translate(348.416181 176.431699)scale(0.098186 -0.098186)">
     <use xlink:href="#DejaVuSans-Bold-32"/>
     <use x="34.814453" xlink:href="#DejaVuSans-Bold-54"/>
     <use x="104.394531" xlink:href="#DejaVuSans-Bold-49"/>
     <use x="173.974609" xlink:href="#DejaVuSans-Bold-37"/>
    </g>
   </g>
   <g id="text_23">
    <!--  39% -->
    <defs>
     <path d="M 10.015625 1.609375 
L 10.015625 15.09375 
Q 14.5 12.984375 18.59375 11.9375 
Q 22.703125 10.890625 26.703125 10.890625 
Q 35.109375 10.890625 39.796875 15.546875 
Q 44.484375 20.21875 45.3125 29.390625 
Q 42 26.953125 38.234375 25.734375 
Q 34.46875 24.515625 30.078125 24.515625 
Q 18.890625 24.515625 12.03125 31.03125 
Q 5.171875 37.546875 5.171875 48.1875 
Q 5.171875 59.96875 12.8125 67.046875 
Q 20.453125 74.125 33.296875 74.125 
Q 47.5625 74.125 55.375 64.5 
Q 63.1875 54.890625 63.1875 37.3125 
Q 63.1875 19.234375 54.046875 8.90625 
Q 44.921875 -1.421875 29 -1.421875 
Q 23.875 -1.421875 19.1875 -0.65625 
Q 14.5 0.09375 10.015625 1.609375 
z
M 33.203125 36.71875 
Q 38.140625 36.71875 40.625 39.90625 
Q 43.109375 43.109375 43.109375 49.515625 
Q 43.109375 55.859375 40.625 59.078125 
Q 38.140625 62.3125 33.203125 62.3125 
Q 28.265625 62.3125 25.78125 59.078125 
Q 23.296875 55.859375 23.296875 49.515625 
Q 23.296875 43.109375 25.78125 39.90625 
Q 28.265625 36.71875 33.203125 36.71875 
z
" id="DejaVuSans-Bold-57"/>
    </defs>
    <g style="fill:#ffffff;" transform="translate(362.663998 215.986937)scale(0.098186 -0.098186)">
     <use xlink:href="#DejaVuSans-Bold-32"/>
     <use x="34.814453" xlink:href="#DejaVuSans-Bold-51"/>
     <use x="104.394531" xlink:href="#DejaVuSans-Bold-57"/>
     <use x="173.974609" xlink:href="#DejaVuSans-Bold-37"/>
    </g>
   </g>
  </g>
  <g id="axes_9">
   <g id="patch_18">
    <path d="M 521.877853 192.998685 
C 521.877853 186.450739 520.172133 180.014352 516.929311 174.325794 
C 513.686488 168.637235 509.017062 163.890339 503.382628 160.554361 
C 497.748194 157.218383 491.340743 155.406995 484.793684 155.29926 
C 478.246624 155.191526 471.783044 156.791116 466.041901 159.939905 
C 460.300758 163.088693 455.477678 167.679386 452.049447 173.258169 
C 448.621216 178.836953 446.704649 185.213734 446.48921 191.758134 
C 446.27377 198.302535 447.766798 204.791559 450.8207 210.583732 
C 453.874602 216.375906 458.385318 221.273865 463.906941 224.79342 
L 484.173325 192.998685 
L 521.877853 192.998685 
z
" style="fill:#ffa500;"/>
   </g>
   <g id="patch_19">
    <path d="M 464.456844 225.79605 
C 470.155837 229.428664 476.72805 231.463069 483.482675 231.68543 
C 490.2373 231.907791 496.929083 230.310033 502.854648 227.060097 
C 508.780213 223.810162 513.724408 219.02605 517.167548 213.210623 
C 520.610688 207.395196 522.427755 200.759606 522.427756 194.001322 
L 484.723227 194.001315 
L 464.456844 225.79605 
z
" style="fill:#808080;"/>
   </g>
   <g id="matplotlib.axis_17"/>
   <g id="matplotlib.axis_18"/>
   <g id="text_24">
    <!--  66% -->
    <g style="fill:#ffffff;" transform="translate(458.534189 176.134484)scale(0.107672 -0.107672)">
     <use xlink:href="#DejaVuSans-Bold-32"/>
     <use x="34.814453" xlink:href="#DejaVuSans-Bold-54"/>
     <use x="104.394531" xlink:href="#DejaVuSans-Bold-54"/>
     <use x="173.974609" xlink:href="#DejaVuSans-Bold-37"/>
    </g>
   </g>
   <g id="text_25">
    <!--  34% -->
    <g style="fill:#ffffff;" transform="translate(480.841798 216.807651)scale(0.107672 -0.107672)">
     <use xlink:href="#DejaVuSans-Bold-32"/>
     <use x="34.814453" xlink:href="#DejaVuSans-Bold-51"/>
     <use x="104.394531" xlink:href="#DejaVuSans-Bold-52"/>
     <use x="173.974609" xlink:href="#DejaVuSans-Bold-37"/>
    </g>
   </g>
  </g>
  <g id="axes_10">
   <g id="patch_20">
    <path d="M 637.712287 192.939154 
C 637.712287 184.214053 634.68371 175.753773 629.146526 169.010851 
C 623.609343 162.267929 615.899682 157.651683 607.341204 155.95467 
C 598.782725 154.257658 589.894961 155.582894 582.203839 159.70285 
C 574.512717 163.822806 568.485116 170.487387 565.155907 178.552358 
L 600.007759 192.939154 
L 637.712287 192.939154 
z
" style="fill:#ffa500;"/>
   </g>
   <g id="patch_21">
    <path d="M 564.933493 179.67405 
C 562.807018 184.825411 561.84887 190.384734 562.12821 195.950736 
C 562.40755 201.516738 563.91749 206.952196 566.549041 211.864767 
C 569.180592 216.777338 572.868876 221.045908 577.347663 224.362363 
C 581.826451 227.678818 586.985324 229.961394 592.451903 231.045331 
C 597.918483 232.129267 603.557997 231.987841 608.963374 230.631261 
C 614.368751 229.27468 619.406728 226.73639 623.713652 223.19961 
C 628.020577 219.66283 631.490266 215.214754 633.872272 210.176455 
C 636.254278 205.138156 637.489875 199.633846 637.489874 194.060839 
L 599.785345 194.060846 
L 564.933493 179.67405 
z
" style="fill:#808080;"/>
   </g>
   <g id="matplotlib.axis_19"/>
   <g id="matplotlib.axis_20"/>
   <g id="text_26">
    <!--  44% -->
    <g style="fill:#ffffff;" transform="translate(590.603931 173.527022)scale(0.100695 -0.100695)">
     <use xlink:href="#DejaVuSans-Bold-32"/>
     <use x="34.814453" xlink:href="#DejaVuSans-Bold-52"/>
     <use x="104.394531" xlink:href="#DejaVuSans-Bold-52"/>
     <use x="173.974609" xlink:href="#DejaVuSans-Bold-37"/>
    </g>
   </g>
   <g id="text_27">
    <!--  56% -->
    <g style="fill:#ffffff;" transform="translate(581.581386 219.030094)scale(0.100695 -0.100695)">
     <use xlink:href="#DejaVuSans-Bold-32"/>
     <use x="34.814453" xlink:href="#DejaVuSans-Bold-53"/>
     <use x="104.394531" xlink:href="#DejaVuSans-Bold-54"/>
     <use x="173.974609" xlink:href="#DejaVuSans-Bold-37"/>
    </g>
   </g>
  </g>
  <g id="axes_11">
   <g id="patch_22">
    <path d="M 170.904044 278.743009 
C 170.904044 273.229968 169.523961 267.803638 166.890062 262.960478 
C 164.256163 258.117318 160.4513 254.009678 155.823584 251.013369 
C 151.195869 248.017061 145.890871 246.226337 140.393951 245.805033 
C 134.897032 245.38373 129.381104 246.345099 124.350826 248.601184 
C 119.320548 250.857269 114.934153 254.337102 111.592959 258.722309 
C 108.251765 263.107516 106.060873 268.260155 105.220729 273.708804 
C 104.380586 279.157453 104.91762 284.730719 106.782696 289.918696 
C 108.647773 295.106673 111.782224 299.746168 115.899276 303.412706 
L 137.869467 278.743009 
L 170.904044 278.743009 
z
" style="fill:#ffa500;"/>
   </g>
   <g id="patch_23">
    <path d="M 116.367239 304.4561 
C 121.124521 308.692812 127.007272 311.464348 133.303225 312.43514 
C 139.599178 313.405931 146.043548 312.53515 151.856071 309.928228 
C 157.668593 307.321305 162.604814 303.087879 166.06707 297.74052 
C 169.529325 292.393162 171.372007 286.156761 171.372007 279.786403 
L 138.33743 279.786403 
L 116.367239 304.4561 
z
" style="fill:#808080;"/>
   </g>
   <g id="matplotlib.axis_21"/>
   <g id="matplotlib.axis_22">
    <g id="text_28">
     <!-- Total -->
     <defs>
      <path d="M -0.296875 72.90625 
L 61.375 72.90625 
L 61.375 64.59375 
L 35.5 64.59375 
L 35.5 0 
L 25.59375 0 
L 25.59375 64.59375 
L -0.296875 64.59375 
z
" id="DejaVuSans-84"/>
     </defs>
     <g transform="translate(95.248623 296.77955)rotate(-90)scale(0.15 -0.15)">
      <use xlink:href="#DejaVuSans-84"/>
      <use x="44.083984" xlink:href="#DejaVuSans-111"/>
      <use x="105.265625" xlink:href="#DejaVuSans-116"/>
      <use x="144.474609" xlink:href="#DejaVuSans-97"/>
      <use x="205.753906" xlink:href="#DejaVuSans-108"/>
     </g>
    </g>
   </g>
   <g id="text_29">
    <!--  63% -->
    <g style="fill:#ffffff;" transform="translate(116.424687 263.341806)scale(0.097265 -0.097265)">
     <use xlink:href="#DejaVuSans-Bold-32"/>
     <use x="34.814453" xlink:href="#DejaVuSans-Bold-54"/>
     <use x="104.394531" xlink:href="#DejaVuSans-Bold-51"/>
     <use x="173.974609" xlink:href="#DejaVuSans-Bold-37"/>
    </g>
   </g>
   <g id="text_30">
    <!--  37% -->
    <g style="fill:#ffffff;" transform="translate(133.115019 300.55539)scale(0.097265 -0.097265)">
     <use xlink:href="#DejaVuSans-Bold-32"/>
     <use x="34.814453" xlink:href="#DejaVuSans-Bold-51"/>
     <use x="104.394531" xlink:href="#DejaVuSans-Bold-55"/>
     <use x="173.974609" xlink:href="#DejaVuSans-Bold-37"/>
    </g>
   </g>
  </g>
  <g id="axes_12">
   <g id="patch_24">
    <path d="M 278.701472 278.912088 
C 278.701472 276.264679 278.290799 273.633221 277.484122 271.111705 
C 276.677445 268.590188 275.484483 266.208998 273.947849 264.053185 
C 272.411214 261.897373 270.549422 259.992916 268.428974 258.407839 
C 266.308525 256.822761 263.954971 255.576163 261.452376 254.712571 
C 258.949781 253.848979 256.328301 253.378799 253.681572 253.318826 
C 251.034843 253.258852 248.394756 253.609807 245.855613 254.359156 
C 243.31647 255.108504 240.908865 256.247217 238.718795 257.73462 
C 236.528726 259.222023 234.582581 261.040194 232.949874 263.12419 
C 231.317168 265.208187 230.017573 267.532897 229.097509 270.015286 
C 228.177446 272.497675 227.648 275.107831 227.528084 277.752522 
C 227.408167 280.397214 227.699225 283.044573 228.39086 285.60004 
C 229.082495 288.155508 230.166374 290.58829 231.603782 292.811493 
C 233.04119 295.034696 234.814807 297.02153 236.861282 298.701028 
C 238.907757 300.380526 241.20243 301.73245 243.663339 302.708513 
C 246.124248 303.684576 248.72174 304.273015 251.363036 304.452813 
C 254.004332 304.632611 256.657606 304.401601 259.228085 303.768034 
L 253.10164 278.912088 
L 278.701472 278.912088 
z
" style="fill:#ffa500;"/>
   </g>
   <g id="patch_25">
    <path d="M 260.128253 304.47327 
C 265.684551 303.103764 270.624349 299.909945 274.153575 295.40522 
C 277.682801 290.900494 279.601641 285.339905 279.60164 279.617319 
L 254.001808 279.617324 
L 260.128253 304.47327 
z
" style="fill:#808080;"/>
   </g>
   <g id="matplotlib.axis_23"/>
   <g id="matplotlib.axis_24"/>
   <g id="text_31">
    <!--  79% -->
    <g style="fill:#ffffff;" transform="translate(228.203675 272.017225)scale(0.093422 -0.093422)">
     <use xlink:href="#DejaVuSans-Bold-32"/>
     <use x="34.814453" xlink:href="#DejaVuSans-Bold-55"/>
     <use x="104.394531" xlink:href="#DejaVuSans-Bold-57"/>
     <use x="173.974609" xlink:href="#DejaVuSans-Bold-37"/>
    </g>
   </g>
   <g id="text_32">
    <!--  21% -->
    <g style="fill:#ffffff;" transform="translate(253.285963 291.667937)scale(0.093422 -0.093422)">
     <use xlink:href="#DejaVuSans-Bold-32"/>
     <use x="34.814453" xlink:href="#DejaVuSans-Bold-50"/>
     <use x="104.394531" xlink:href="#DejaVuSans-Bold-49"/>
     <use x="173.974609" xlink:href="#DejaVuSans-Bold-37"/>
    </g>
   </g>
  </g>
  <g id="axes_13">
   <g id="patch_26">
    <path d="M 403.987418 278.714386 
C 403.987418 273.285764 402.729543 267.930254 400.312773 263.06927 
C 397.896004 258.208286 394.385436 253.972762 390.057311 250.695985 
C 385.729186 247.419207 380.700084 245.189437 375.365735 244.182132 
C 370.031386 243.174826 364.535475 243.417117 359.310465 244.889939 
C 354.085454 246.362762 349.272084 249.026444 345.249107 252.671386 
C 341.226131 256.316328 338.10191 260.84435 336.122285 265.899152 
C 334.14266 270.953954 333.360952 276.399381 333.838672 281.806943 
C 334.316393 287.214505 336.040675 292.438544 338.875837 297.067993 
L 368.844876 278.714386 
L 403.987418 278.714386 
z
" style="fill:#ffa500;"/>
   </g>
   <g id="patch_27">
    <path d="M 339.186084 298.168632 
C 343.184951 304.698259 349.21032 309.745444 356.339888 312.537616 
C 363.469456 315.329788 371.319892 315.716821 378.689532 313.639473 
C 386.059172 311.562125 392.551776 307.132087 397.173522 301.027464 
C 401.795269 294.922841 404.297664 287.471857 404.297665 279.815032 
L 369.155124 279.815025 
L 339.186084 298.168632 
z
" style="fill:#808080;"/>
   </g>
   <g id="matplotlib.axis_25"/>
   <g id="matplotlib.axis_26"/>
   <g id="text_33">
    <!--  59% -->
    <g style="fill:#ffffff;" transform="translate(349.509808 261.160137)scale(0.099313 -0.099313)">
     <use xlink:href="#DejaVuSans-Bold-32"/>
     <use x="34.814453" xlink:href="#DejaVuSans-Bold-53"/>
     <use x="104.394531" xlink:href="#DejaVuSans-Bold-57"/>
     <use x="173.974609" xlink:href="#DejaVuSans-Bold-37"/>
    </g>
   </g>
   <g id="text_34">
    <!--  41% -->
    <g style="fill:#ffffff;" transform="translate(361.261347 302.850113)scale(0.099313 -0.099313)">
     <use xlink:href="#DejaVuSans-Bold-32"/>
     <use x="34.814453" xlink:href="#DejaVuSans-Bold-52"/>
     <use x="104.394531" xlink:href="#DejaVuSans-Bold-49"/>
     <use x="173.974609" xlink:href="#DejaVuSans-Bold-37"/>
    </g>
   </g>
  </g>
  <g id="axes_14">
   <g id="patch_28">
    <path d="M 522.958922 278.746468 
C 522.958922 272.23153 521.316005 265.820585 518.18265 260.108624 
C 515.049295 254.396664 510.52553 249.566037 505.031202 246.065071 
C 499.536874 242.564104 493.247384 240.504562 486.746453 240.07759 
C 480.245522 239.650617 473.740686 240.869844 467.835654 243.622115 
C 461.930621 246.374386 456.813903 250.571838 452.960379 255.82491 
C 449.106855 261.077981 446.639543 267.218972 445.787434 273.677944 
C 444.935324 280.136916 445.725619 286.707672 448.084972 292.780386 
C 450.444325 298.853101 454.297416 304.233908 459.286643 308.423421 
L 484.206731 278.746468 
L 522.958922 278.746468 
z
" style="fill:#ffa500;"/>
   </g>
   <g id="patch_29">
    <path d="M 459.769734 309.459898 
C 465.419216 314.203834 472.307569 317.237366 479.621295 318.202241 
C 486.935022 319.167116 494.374413 318.023794 501.060895 314.907298 
C 507.747377 311.790803 513.406944 306.828845 517.371215 300.60742 
C 521.335487 294.385995 523.442011 287.16005 523.442012 279.782951 
L 484.689821 279.782944 
L 459.769734 309.459898 
z
" style="fill:#808080;"/>
   </g>
   <g id="matplotlib.axis_27"/>
   <g id="matplotlib.axis_28"/>
   <g id="text_35">
    <!--  64% -->
    <g style="fill:#ffffff;" transform="translate(459.304631 260.707169)scale(0.11 -0.11)">
     <use xlink:href="#DejaVuSans-Bold-32"/>
     <use x="34.814453" xlink:href="#DejaVuSans-Bold-54"/>
     <use x="104.394531" xlink:href="#DejaVuSans-Bold-52"/>
     <use x="173.974609" xlink:href="#DejaVuSans-Bold-37"/>
    </g>
   </g>
   <g id="text_36">
    <!--  36% -->
    <g style="fill:#ffffff;" transform="translate(479.433012 303.892869)scale(0.11 -0.11)">
     <use xlink:href="#DejaVuSans-Bold-32"/>
     <use x="34.814453" xlink:href="#DejaVuSans-Bold-51"/>
     <use x="104.394531" xlink:href="#DejaVuSans-Bold-54"/>
     <use x="173.974609" xlink:href="#DejaVuSans-Bold-37"/>
    </g>
   </g>
  </g>
  <g id="axes_15">
   <g id="patch_30">
    <path d="M 638.797495 278.71263 
C 638.797495 270.19274 635.987776 261.906096 630.805903 255.143203 
C 625.62403 248.38031 618.353728 243.511459 610.127225 241.294891 
C 601.900722 239.078323 593.168445 239.635403 585.290299 242.879375 
C 577.412154 246.123347 570.819495 251.876593 566.539016 259.243141 
L 600.045304 278.71263 
L 638.797495 278.71263 
z
" style="fill:#ffa500;"/>
   </g>
   <g id="patch_31">
    <path d="M 566.241511 260.347293 
C 563.252973 265.490459 561.488379 271.253337 561.084871 277.18804 
C 560.681363 283.122743 561.649673 289.071434 563.914544 294.571786 
C 566.179416 300.072138 569.680614 304.977867 574.146027 308.907701 
C 578.611441 312.837536 583.92231 315.686961 589.665879 317.234521 
C 595.409447 318.782081 601.432961 318.986618 607.268277 317.832235 
C 613.103594 316.677853 618.59552 314.195253 623.317226 310.57738 
C 628.038933 306.959507 631.864845 302.302582 634.497614 296.968536 
C 637.130383 291.63449 638.49999 285.765186 638.49999 279.816782 
L 599.747799 279.816782 
L 566.241511 260.347293 
z
" style="fill:#808080;"/>
   </g>
   <g id="matplotlib.axis_29"/>
   <g id="matplotlib.axis_30"/>
   <g id="text_37">
    <!--  42% -->
    <g style="fill:#ffffff;" transform="translate(592.060488 259.086856)scale(0.102374 -0.102374)">
     <use xlink:href="#DejaVuSans-Bold-32"/>
     <use x="34.814453" xlink:href="#DejaVuSans-Bold-52"/>
     <use x="104.394531" xlink:href="#DejaVuSans-Bold-50"/>
     <use x="173.974609" xlink:href="#DejaVuSans-Bold-37"/>
    </g>
   </g>
   <g id="text_38">
    <!--  58% -->
    <g style="fill:#ffffff;" transform="translate(579.664678 305.092294)scale(0.102374 -0.102374)">
     <use xlink:href="#DejaVuSans-Bold-32"/>
     <use x="34.814453" xlink:href="#DejaVuSans-Bold-53"/>
     <use x="104.394531" xlink:href="#DejaVuSans-Bold-56"/>
     <use x="173.974609" xlink:href="#DejaVuSans-Bold-37"/>
    </g>
   </g>
  </g>
  <g id="legend_1">
   <g id="patch_32">
    <path d="M 235.710938 352.5 
L 484.289062 352.5 
Q 487.289062 352.5 487.289062 349.5 
L 487.289062 328.982813 
Q 487.289062 325.982813 484.289062 325.982813 
L 235.710938 325.982813 
Q 232.710938 325.982813 232.710938 328.982813 
L 232.710938 349.5 
Q 232.710938 352.5 235.710938 352.5 
z
" style="fill:#ffffff;opacity:0.8;stroke:#cccccc;stroke-linejoin:miter;"/>
   </g>
   <g id="line2d_1">
    <path d="M 238.710938 338.130469 
L 268.710938 338.130469 
" style="fill:none;stroke:#ffffff;stroke-linecap:square;stroke-width:1.5;"/>
   </g>
   <g id="line2d_2">
    <defs>
     <path d="M 0 7.5 
C 1.989023 7.5 3.896849 6.709753 5.303301 5.303301 
C 6.709753 3.896849 7.5 1.989023 7.5 0 
C 7.5 -1.989023 6.709753 -3.896849 5.303301 -5.303301 
C 3.896849 -6.709753 1.989023 -7.5 0 -7.5 
C -1.989023 -7.5 -3.896849 -6.709753 -5.303301 -5.303301 
C -6.709753 -3.896849 -7.5 -1.989023 -7.5 0 
C -7.5 1.989023 -6.709753 3.896849 -5.303301 5.303301 
C -3.896849 6.709753 -1.989023 7.5 0 7.5 
z
" id="m583ad8d256" style="stroke:#ffffff;"/>
    </defs>
    <g>
     <use style="fill:#ffa500;stroke:#ffffff;" x="253.710938" xlink:href="#m583ad8d256" y="338.130469"/>
    </g>
   </g>
   <g id="text_39">
    <!-- clustered -->
    <defs>
     <path d="M 45.40625 46.390625 
L 45.40625 75.984375 
L 54.390625 75.984375 
L 54.390625 0 
L 45.40625 0 
L 45.40625 8.203125 
Q 42.578125 3.328125 38.25 0.953125 
Q 33.9375 -1.421875 27.875 -1.421875 
Q 17.96875 -1.421875 11.734375 6.484375 
Q 5.515625 14.40625 5.515625 27.296875 
Q 5.515625 40.1875 11.734375 48.09375 
Q 17.96875 56 27.875 56 
Q 33.9375 56 38.25 53.625 
Q 42.578125 51.265625 45.40625 46.390625 
z
M 14.796875 27.296875 
Q 14.796875 17.390625 18.875 11.75 
Q 22.953125 6.109375 30.078125 6.109375 
Q 37.203125 6.109375 41.296875 11.75 
Q 45.40625 17.390625 45.40625 27.296875 
Q 45.40625 37.203125 41.296875 42.84375 
Q 37.203125 48.484375 30.078125 48.484375 
Q 22.953125 48.484375 18.875 42.84375 
Q 14.796875 37.203125 14.796875 27.296875 
z
" id="DejaVuSans-100"/>
    </defs>
    <g transform="translate(280.710938 343.380469)scale(0.15 -0.15)">
     <use xlink:href="#DejaVuSans-99"/>
     <use x="54.980469" xlink:href="#DejaVuSans-108"/>
     <use x="82.763672" xlink:href="#DejaVuSans-117"/>
     <use x="146.142578" xlink:href="#DejaVuSans-115"/>
     <use x="198.242188" xlink:href="#DejaVuSans-116"/>
     <use x="237.451172" xlink:href="#DejaVuSans-101"/>
     <use x="298.974609" xlink:href="#DejaVuSans-114"/>
     <use x="337.837891" xlink:href="#DejaVuSans-101"/>
     <use x="399.361328" xlink:href="#DejaVuSans-100"/>
    </g>
   </g>
   <g id="line2d_3">
    <path d="M 380.1375 338.130469 
L 410.1375 338.130469 
" style="fill:none;stroke:#ffffff;stroke-linecap:square;stroke-width:1.5;"/>
   </g>
   <g id="line2d_4">
    <defs>
     <path d="M 0 7.5 
C 1.989023 7.5 3.896849 6.709753 5.303301 5.303301 
C 6.709753 3.896849 7.5 1.989023 7.5 0 
C 7.5 -1.989023 6.709753 -3.896849 5.303301 -5.303301 
C 3.896849 -6.709753 1.989023 -7.5 0 -7.5 
C -1.989023 -7.5 -3.896849 -6.709753 -5.303301 -5.303301 
C -6.709753 -3.896849 -7.5 -1.989023 -7.5 0 
C -7.5 1.989023 -6.709753 3.896849 -5.303301 5.303301 
C -3.896849 6.709753 -1.989023 7.5 0 7.5 
z
" id="md1fa924dec" style="stroke:#ffffff;"/>
    </defs>
    <g>
     <use style="fill:#808080;stroke:#ffffff;" x="395.1375" xlink:href="#md1fa924dec" y="338.130469"/>
    </g>
   </g>
   <g id="text_40">
    <!-- isolated -->
    <g transform="translate(422.1375 343.380469)scale(0.15 -0.15)">
     <use xlink:href="#DejaVuSans-105"/>
     <use x="27.783203" xlink:href="#DejaVuSans-115"/>
     <use x="79.882812" xlink:href="#DejaVuSans-111"/>
     <use x="141.064453" xlink:href="#DejaVuSans-108"/>
     <use x="168.847656" xlink:href="#DejaVuSans-97"/>
     <use x="230.126953" xlink:href="#DejaVuSans-116"/>
     <use x="269.335938" xlink:href="#DejaVuSans-101"/>
     <use x="330.859375" xlink:href="#DejaVuSans-100"/>
    </g>
   </g>
  </g>
 </g>
</svg>
