<?xml version="1.0" encoding="utf-8" standalone="no"?>
<!DOCTYPE svg PUBLIC "-//W3C//DTD SVG 1.1//EN"
  "http://www.w3.org/Graphics/SVG/1.1/DTD/svg11.dtd">
<!-- Created with matplotlib (https://matplotlib.org/) -->
<svg height="342.621875pt" version="1.1" viewBox="0 0 899.610938 342.621875" width="899.610938pt" xmlns="http://www.w3.org/2000/svg" xmlns:xlink="http://www.w3.org/1999/xlink">
 <defs>
  <style type="text/css">
*{stroke-linecap:butt;stroke-linejoin:round;}
  </style>
 </defs>
 <g id="figure_1">
  <g id="patch_1">
   <path d="M 0 342.621875 
L 899.610938 342.621875 
L 899.610938 0 
L 0 0 
z
" style="fill:#ffffff;"/>
  </g>
  <g id="axes_1">
   <g id="patch_2">
    <path d="M 55.410938 279 
L 892.410938 279 
L 892.410938 7.2 
L 55.410938 7.2 
z
" style="fill:#ffffff;"/>
   </g>
   <g id="PathCollection_1">
    <path clip-path="url(#p86e78e7ce8)" d="M 160.035938 269.798476 
C 169.609365 269.798476 178.791979 265.994913 185.561415 259.225477 
C 192.330851 252.456042 196.134414 243.273428 196.134414 233.7 
C 196.134414 224.126572 192.330851 214.943958 185.561415 208.174523 
C 178.791979 201.405087 169.609365 197.601524 160.035938 197.601524 
C 150.46251 197.601524 141.279896 201.405087 134.51046 208.174523 
C 127.741024 214.943958 123.937461 224.126572 123.937461 233.7 
C 123.937461 243.273428 127.741024 252.456042 134.51046 259.225477 
C 141.279896 265.994913 150.46251 269.798476 160.035938 269.798476 
z
" style="fill:#ffa500;stroke:#ffa500;"/>
    <path clip-path="url(#p86e78e7ce8)" d="M 160.035938 195.284766 
C 161.861799 195.284766 163.613123 194.559343 164.904202 193.268265 
C 166.195281 191.977186 166.920703 190.225861 166.920703 188.4 
C 166.920703 186.574139 166.195281 184.822814 164.904202 183.531735 
C 163.613123 182.240657 161.861799 181.515234 160.035938 181.515234 
C 158.210076 181.515234 156.458752 182.240657 155.167673 183.531735 
C 153.876594 184.822814 153.151172 186.574139 153.151172 188.4 
C 153.151172 190.225861 153.876594 191.977186 155.167673 193.268265 
C 156.458752 194.559343 158.210076 195.284766 160.035938 195.284766 
z
" style="fill:#ffa500;stroke:#ffa500;"/>
    <path clip-path="url(#p86e78e7ce8)" d="M 264.660938 243.533616 
C 267.268843 243.533616 269.770286 242.497484 271.614354 240.653416 
C 273.458422 238.809349 274.494553 236.307905 274.494553 233.7 
C 274.494553 231.092095 273.458422 228.590651 271.614354 226.746584 
C 269.770286 224.902516 267.268843 223.866384 264.660938 223.866384 
C 262.053032 223.866384 259.551589 224.902516 257.707521 226.746584 
C 255.863453 228.590651 254.827322 231.092095 254.827322 233.7 
C 254.827322 236.307905 255.863453 238.809349 257.707521 240.653416 
C 259.551589 242.497484 262.053032 243.533616 264.660938 243.533616 
z
" style="fill:#ffa500;stroke:#ffa500;"/>
    <path clip-path="url(#p86e78e7ce8)" d="M 264.660938 212.773141 
C 271.12477 212.773141 277.324731 210.205033 281.895351 205.634413 
C 286.465971 201.063793 289.034078 194.863833 289.034078 188.4 
C 289.034078 181.936167 286.465971 175.736207 281.895351 171.165587 
C 277.324731 166.594967 271.12477 164.026859 264.660938 164.026859 
C 258.197105 164.026859 251.997144 166.594967 247.426524 171.165587 
C 242.855904 175.736207 240.287797 181.936167 240.287797 188.4 
C 240.287797 194.863833 242.855904 201.063793 247.426524 205.634413 
C 251.997144 210.205033 258.197105 212.773141 264.660938 212.773141 
z
" style="fill:#ffa500;stroke:#ffa500;"/>
    <path clip-path="url(#p86e78e7ce8)" d="M 264.660938 148.70803 
C 266.148204 148.70803 267.574757 148.117133 268.626414 147.065476 
C 269.67807 146.013819 270.268967 144.587267 270.268967 143.1 
C 270.268967 141.612733 269.67807 140.186181 268.626414 139.134524 
C 267.574757 138.082867 266.148204 137.49197 264.660938 137.49197 
C 263.173671 137.49197 261.747118 138.082867 260.695461 139.134524 
C 259.643805 140.186181 259.052908 141.612733 259.052908 143.1 
C 259.052908 144.587267 259.643805 146.013819 260.695461 147.065476 
C 261.747118 148.117133 263.173671 148.70803 264.660938 148.70803 
z
" style="fill:#ffa500;stroke:#ffa500;"/>
    <path clip-path="url(#p86e78e7ce8)" d="M 369.285938 239.435852 
C 370.807103 239.435852 372.266171 238.831487 373.341797 237.75586 
C 374.417424 236.680233 375.02179 235.221166 375.02179 233.7 
C 375.02179 232.178834 374.417424 230.719767 373.341797 229.64414 
C 372.266171 228.568513 370.807103 227.964148 369.285938 227.964148 
C 367.764772 227.964148 366.305704 228.568513 365.230078 229.64414 
C 364.154451 230.719767 363.550085 232.178834 363.550085 233.7 
C 363.550085 235.221166 364.154451 236.680233 365.230078 237.75586 
C 366.305704 238.831487 367.764772 239.435852 369.285938 239.435852 
z
" style="fill:#ffa500;stroke:#ffa500;"/>
    <path clip-path="url(#p86e78e7ce8)" d="M 369.285938 199.930395 
C 372.343834 199.930395 375.276898 198.71548 377.439158 196.55322 
C 379.601417 194.390961 380.816332 191.457896 380.816332 188.4 
C 380.816332 185.342104 379.601417 182.409039 377.439158 180.24678 
C 375.276898 178.08452 372.343834 176.869605 369.285938 176.869605 
C 366.228041 176.869605 363.294977 178.08452 361.132717 180.24678 
C 358.970458 182.409039 357.755543 185.342104 357.755543 188.4 
C 357.755543 191.457896 358.970458 194.390961 361.132717 196.55322 
C 363.294977 198.71548 366.228041 199.930395 369.285938 199.930395 
z
" style="fill:#ffa500;stroke:#ffa500;"/>
    <path clip-path="url(#p86e78e7ce8)" d="M 369.285938 153.506729 
C 372.045834 153.506729 374.693064 152.41021 376.644606 150.458668 
C 378.596148 148.507127 379.692666 145.859897 379.692666 143.1 
C 379.692666 140.340103 378.596148 137.692873 376.644606 135.741332 
C 374.693064 133.78979 372.045834 132.693271 369.285938 132.693271 
C 366.526041 132.693271 363.878811 133.78979 361.927269 135.741332 
C 359.975727 137.692873 358.879209 140.340103 358.879209 143.1 
C 358.879209 145.859897 359.975727 148.507127 361.927269 150.458668 
C 363.878811 152.41021 366.526041 153.506729 369.285938 153.506729 
z
" style="fill:#ffa500;stroke:#ffa500;"/>
    <path clip-path="url(#p86e78e7ce8)" d="M 369.285938 104.020932 
C 370.935748 104.020932 372.518209 103.365456 373.684801 102.198863 
C 374.851393 101.032271 375.50687 99.449811 375.50687 97.8 
C 375.50687 96.150189 374.851393 94.567729 373.684801 93.401137 
C 372.518209 92.234544 370.935748 91.579068 369.285938 91.579068 
C 367.636127 91.579068 366.053666 92.234544 364.887074 93.401137 
C 363.720482 94.567729 363.065005 96.150189 363.065005 97.8 
C 363.065005 99.449811 363.720482 101.032271 364.887074 102.198863 
C 366.053666 103.365456 367.636127 104.020932 369.285938 104.020932 
z
" style="fill:#ffa500;stroke:#ffa500;"/>
    <path clip-path="url(#p86e78e7ce8)" d="M 473.910938 194.736403 
C 475.591371 194.736403 477.203205 194.068759 478.391451 192.880513 
C 479.579697 191.692267 480.24734 190.080434 480.24734 188.4 
C 480.24734 186.719566 479.579697 185.107733 478.391451 183.919487 
C 477.203205 182.731241 475.591371 182.063597 473.910938 182.063597 
C 472.230504 182.063597 470.61867 182.731241 469.430424 183.919487 
C 468.242178 185.107733 467.574535 186.719566 467.574535 188.4 
C 467.574535 190.080434 468.242178 191.692267 469.430424 192.880513 
C 470.61867 194.068759 472.230504 194.736403 473.910938 194.736403 
z
" style="fill:#ffa500;stroke:#ffa500;"/>
    <path clip-path="url(#p86e78e7ce8)" d="M 473.910938 150.686172 
C 475.922814 150.686172 477.85256 149.886845 479.275171 148.464233 
C 480.697782 147.041622 481.497109 145.111876 481.497109 143.1 
C 481.497109 141.088124 480.697782 139.158378 479.275171 137.735767 
C 477.85256 136.313155 475.922814 135.513828 473.910938 135.513828 
C 471.899061 135.513828 469.969315 136.313155 468.546704 137.735767 
C 467.124093 139.158378 466.324766 141.088124 466.324766 143.1 
C 466.324766 145.111876 467.124093 147.041622 468.546704 148.464233 
C 469.969315 149.886845 471.899061 150.686172 473.910938 150.686172 
z
" style="fill:#ffa500;stroke:#ffa500;"/>
    <path clip-path="url(#p86e78e7ce8)" d="M 473.910938 104.249806 
C 475.621446 104.249806 477.262127 103.570214 478.471639 102.360702 
C 479.681151 101.151189 480.360744 99.510509 480.360744 97.8 
C 480.360744 96.089491 479.681151 94.448811 478.471639 93.239298 
C 477.262127 92.029786 475.621446 91.350194 473.910938 91.350194 
C 472.200429 91.350194 470.559748 92.029786 469.350236 93.239298 
C 468.140724 94.448811 467.461131 96.089491 467.461131 97.8 
C 467.461131 99.510509 468.140724 101.151189 469.350236 102.360702 
C 470.559748 103.570214 472.200429 104.249806 473.910938 104.249806 
z
" style="fill:#ffa500;stroke:#ffa500;"/>
    <path clip-path="url(#p86e78e7ce8)" d="M 578.535938 148.835852 
C 580.057103 148.835852 581.516171 148.231487 582.591797 147.15586 
C 583.667424 146.080233 584.27179 144.621166 584.27179 143.1 
C 584.27179 141.578834 583.667424 140.119767 582.591797 139.04414 
C 581.516171 137.968513 580.057103 137.364148 578.535938 137.364148 
C 577.014772 137.364148 575.555704 137.968513 574.480078 139.04414 
C 573.404451 140.119767 572.800085 141.578834 572.800085 143.1 
C 572.800085 144.621166 573.404451 146.080233 574.480078 147.15586 
C 575.555704 148.231487 577.014772 148.835852 578.535938 148.835852 
z
" style="fill:#ffa500;stroke:#ffa500;"/>
    <path clip-path="url(#p86e78e7ce8)" d="M 578.535938 104.020932 
C 580.185748 104.020932 581.768209 103.365456 582.934801 102.198863 
C 584.101393 101.032271 584.75687 99.449811 584.75687 97.8 
C 584.75687 96.150189 584.101393 94.567729 582.934801 93.401137 
C 581.768209 92.234544 580.185748 91.579068 578.535938 91.579068 
C 576.886127 91.579068 575.303666 92.234544 574.137074 93.401137 
C 572.970482 94.567729 572.315005 96.150189 572.315005 97.8 
C 572.315005 99.449811 572.970482 101.032271 574.137074 102.198863 
C 575.303666 103.365456 576.886127 104.020932 578.535938 104.020932 
z
" style="fill:#ffa500;stroke:#ffa500;"/>
    <path clip-path="url(#p86e78e7ce8)" d="M 578.535938 58.10803 
C 580.023204 58.10803 581.449757 57.517133 582.501414 56.465476 
C 583.55307 55.413819 584.143967 53.987267 584.143967 52.5 
C 584.143967 51.012733 583.55307 49.586181 582.501414 48.534524 
C 581.449757 47.482867 580.023204 46.89197 578.535938 46.89197 
C 577.048671 46.89197 575.622118 47.482867 574.570461 48.534524 
C 573.518805 49.586181 572.927908 51.012733 572.927908 52.5 
C 572.927908 53.987267 573.518805 55.413819 574.570461 56.465476 
C 575.622118 57.517133 577.048671 58.10803 578.535938 58.10803 
z
" style="fill:#ffa500;stroke:#ffa500;"/>
    <path clip-path="url(#p86e78e7ce8)" d="M 683.160938 58.10803 
C 684.648204 58.10803 686.074757 57.517133 687.126414 56.465476 
C 688.17807 55.413819 688.768967 53.987267 688.768967 52.5 
C 688.768967 51.012733 688.17807 49.586181 687.126414 48.534524 
C 686.074757 47.482867 684.648204 46.89197 683.160938 46.89197 
C 681.673671 46.89197 680.247118 47.482867 679.195461 48.534524 
C 678.143805 49.586181 677.552908 51.012733 677.552908 52.5 
C 677.552908 53.987267 678.143805 55.413819 679.195461 56.465476 
C 680.247118 57.517133 681.673671 58.10803 683.160938 58.10803 
z
" style="fill:#ffa500;stroke:#ffa500;"/>
    <path clip-path="url(#p86e78e7ce8)" d="M 787.785938 58.10803 
C 789.273204 58.10803 790.699757 57.517133 791.751414 56.465476 
C 792.80307 55.413819 793.393967 53.987267 793.393967 52.5 
C 793.393967 51.012733 792.80307 49.586181 791.751414 48.534524 
C 790.699757 47.482867 789.273204 46.89197 787.785938 46.89197 
C 786.298671 46.89197 784.872118 47.482867 783.820461 48.534524 
C 782.768805 49.586181 782.177908 51.012733 782.177908 52.5 
C 782.177908 53.987267 782.768805 55.413819 783.820461 56.465476 
C 784.872118 57.517133 786.298671 58.10803 787.785938 58.10803 
z
" style="fill:#ffa500;stroke:#ffa500;"/>
   </g>
   <g id="matplotlib.axis_1">
    <g id="xtick_1">
     <g id="line2d_1">
      <defs>
       <path d="M 0 0 
L 0 3.5 
" id="m40c07f58d0" style="stroke:#000000;stroke-width:0.8;"/>
      </defs>
      <g>
       <use style="stroke:#000000;stroke-width:0.8;" x="160.035938" xlink:href="#m40c07f58d0" y="279"/>
      </g>
     </g>
     <g id="text_1">
      <!-- 1 -->
      <defs>
       <path d="M 51.09375 7.453125 
L 51.09375 0 
L 12.296875 0 
L 12.296875 7.453125 
L 27.5 7.453125 
L 27.5 54.5 
Q 27.5 56.75 27.65625 59.15625 
L 15.453125 48.796875 
Q 14.75 48.25 14.046875 48.09375 
Q 13.34375 47.953125 12.71875 48.046875 
Q 12.09375 48.15625 11.625 48.46875 
Q 11.15625 48.796875 10.84375 49.15625 
L 7.796875 53.40625 
L 29.296875 71.953125 
L 37.25 71.953125 
L 37.25 7.453125 
z
" id="Lato-Medium-49"/>
      </defs>
      <g transform="translate(160.035938 304.449219)scale(0.25 -0.25)">
       <use xlink:href="#Lato-Medium-49"/>
      </g>
     </g>
    </g>
    <g id="xtick_2">
     <g id="line2d_2">
      <g>
       <use style="stroke:#000000;stroke-width:0.8;" x="264.660938" xlink:href="#m40c07f58d0" y="279"/>
      </g>
     </g>
     <g id="text_2">
      <!-- 2 -->
      <defs>
       <path d="M 49.296875 9.25 
Q 50.90625 9.25 51.796875 8.328125 
Q 52.703125 7.40625 52.703125 5.90625 
L 52.703125 0 
L 4.5 0 
L 4.5 3.34375 
Q 4.5 4.34375 4.890625 5.46875 
Q 5.296875 6.59375 6.25 7.5 
L 28.953125 30.25 
Q 31.796875 33.09375 34.09375 35.75 
Q 36.40625 38.40625 38 41.03125 
Q 39.59375 43.65625 40.46875 46.40625 
Q 41.34375 49.15625 41.34375 52.203125 
Q 41.34375 55.203125 40.390625 57.46875 
Q 39.453125 59.75 37.796875 61.25 
Q 36.15625 62.75 33.90625 63.5 
Q 31.65625 64.25 29.046875 64.25 
Q 26.453125 64.25 24.265625 63.5 
Q 22.09375 62.75 20.390625 61.390625 
Q 18.703125 60.046875 17.546875 58.1875 
Q 16.40625 56.34375 15.90625 54.203125 
Q 15.203125 52.296875 14.125 51.640625 
Q 13.046875 51 11 51.34375 
L 5.90625 52.25 
Q 6.59375 57.25 8.640625 61.046875 
Q 10.703125 64.84375 13.796875 67.421875 
Q 16.90625 70 20.921875 71.296875 
Q 24.953125 72.59375 29.59375 72.59375 
Q 34.296875 72.59375 38.265625 71.21875 
Q 42.25 69.84375 45.140625 67.25 
Q 48.046875 64.65625 49.6875 60.921875 
Q 51.34375 57.203125 51.34375 52.5 
Q 51.34375 48.5 50.171875 45.078125 
Q 49 41.65625 46.96875 38.546875 
Q 44.953125 35.453125 42.265625 32.515625 
Q 39.59375 29.59375 36.59375 26.59375 
L 18.40625 8 
Q 20.5 8.546875 22.625 8.890625 
Q 24.75 9.25 26.65625 9.25 
z
" id="Lato-Medium-50"/>
      </defs>
      <g transform="translate(264.660938 304.449219)scale(0.25 -0.25)">
       <use xlink:href="#Lato-Medium-50"/>
      </g>
     </g>
    </g>
    <g id="xtick_3">
     <g id="line2d_3">
      <g>
       <use style="stroke:#000000;stroke-width:0.8;" x="369.285938" xlink:href="#m40c07f58d0" y="279"/>
      </g>
     </g>
     <g id="text_3">
      <!-- 3 -->
      <defs>
       <path d="M 6.203125 52.25 
Q 6.953125 57.25 9 61.046875 
Q 11.046875 64.84375 14.140625 67.421875 
Q 17.25 70 21.265625 71.296875 
Q 25.296875 72.59375 29.953125 72.59375 
Q 34.59375 72.59375 38.5 71.265625 
Q 42.40625 69.953125 45.171875 67.515625 
Q 47.953125 65.09375 49.5 61.6875 
Q 51.046875 58.296875 51.046875 54.203125 
Q 51.046875 50.75 50.1875 48.09375 
Q 49.34375 45.453125 47.765625 43.453125 
Q 46.203125 41.453125 43.953125 40.078125 
Q 41.703125 38.703125 38.90625 37.796875 
Q 45.75 35.90625 49.203125 31.625 
Q 52.65625 27.34375 52.65625 20.796875 
Q 52.65625 15.75 50.75 11.71875 
Q 48.84375 7.703125 45.546875 4.921875 
Q 42.25 2.15625 37.875 0.671875 
Q 33.5 -0.796875 28.546875 -0.796875 
Q 22.90625 -0.796875 18.84375 0.578125 
Q 14.796875 1.953125 11.9375 4.421875 
Q 9.09375 6.90625 7.21875 10.375 
Q 5.34375 13.84375 4.046875 18 
L 8.296875 19.796875 
Q 9.953125 20.5 11.5 20.203125 
Q 13.046875 19.90625 13.75 18.453125 
Q 14.5 16.953125 15.46875 15.078125 
Q 16.453125 13.203125 18.09375 11.515625 
Q 19.75 9.84375 22.21875 8.6875 
Q 24.703125 7.546875 28.453125 7.546875 
Q 32.046875 7.546875 34.75 8.71875 
Q 37.453125 9.90625 39.25 11.78125 
Q 41.046875 13.65625 41.9375 15.953125 
Q 42.84375 18.25 42.84375 20.5 
Q 42.84375 23.296875 42.140625 25.640625 
Q 41.453125 28 39.46875 29.671875 
Q 37.5 31.34375 34 32.296875 
Q 30.5 33.25 24.90625 33.25 
L 24.90625 40.34375 
Q 29.5 40.40625 32.671875 41.296875 
Q 35.84375 42.203125 37.796875 43.796875 
Q 39.75 45.40625 40.625 47.59375 
Q 41.5 49.796875 41.5 52.5 
Q 41.5 55.453125 40.59375 57.640625 
Q 39.703125 59.84375 38.078125 61.3125 
Q 36.453125 62.796875 34.21875 63.515625 
Q 32 64.25 29.40625 64.25 
Q 26.796875 64.25 24.59375 63.5 
Q 22.40625 62.75 20.703125 61.390625 
Q 19 60.046875 17.84375 58.1875 
Q 16.703125 56.34375 16.203125 54.203125 
Q 15.5 52.296875 14.421875 51.640625 
Q 13.34375 51 11.34375 51.34375 
z
" id="Lato-Medium-51"/>
      </defs>
      <g transform="translate(369.285938 304.449219)scale(0.25 -0.25)">
       <use xlink:href="#Lato-Medium-51"/>
      </g>
     </g>
    </g>
    <g id="xtick_4">
     <g id="line2d_4">
      <g>
       <use style="stroke:#000000;stroke-width:0.8;" x="473.910938" xlink:href="#m40c07f58d0" y="279"/>
      </g>
     </g>
     <g id="text_4">
      <!-- 4 -->
      <defs>
       <path d="M 36.296875 26.203125 
L 36.296875 54.203125 
Q 36.296875 55.65625 36.375 57.28125 
Q 36.453125 58.90625 36.703125 60.65625 
L 11.546875 26.203125 
z
M 55.25 26.203125 
L 55.25 20.546875 
Q 55.25 19.703125 54.703125 19.09375 
Q 54.15625 18.5 53.15625 18.5 
L 44.84375 18.5 
L 44.84375 0 
L 36.296875 0 
L 36.296875 18.5 
L 4.796875 18.5 
Q 3.703125 18.5 2.953125 19.125 
Q 2.203125 19.75 1.953125 20.703125 
L 0.953125 25.703125 
L 35.65625 71.84375 
L 44.84375 71.84375 
L 44.84375 26.203125 
z
" id="Lato-Medium-52"/>
      </defs>
      <g transform="translate(473.910938 304.449219)scale(0.25 -0.25)">
       <use xlink:href="#Lato-Medium-52"/>
      </g>
     </g>
    </g>
    <g id="xtick_5">
     <g id="line2d_5">
      <g>
       <use style="stroke:#000000;stroke-width:0.8;" x="578.535938" xlink:href="#m40c07f58d0" y="279"/>
      </g>
     </g>
     <g id="text_5">
      <!-- 5 -->
      <defs>
       <path d="M 18.65625 45 
Q 24.15625 46.15625 28.59375 46.15625 
Q 34.203125 46.15625 38.5 44.46875 
Q 42.796875 42.796875 45.71875 39.875 
Q 48.65625 36.953125 50.125 32.96875 
Q 51.59375 29 51.59375 24.34375 
Q 51.59375 18.65625 49.59375 14 
Q 47.59375 9.34375 44.09375 6.046875 
Q 40.59375 2.75 35.8125 0.96875 
Q 31.046875 -0.796875 25.546875 -0.796875 
Q 22.296875 -0.796875 19.375 -0.140625 
Q 16.453125 0.5 13.890625 1.578125 
Q 11.34375 2.65625 9.171875 4.046875 
Q 7 5.453125 5.296875 7 
L 8.296875 11.203125 
Q 9.25 12.59375 10.84375 12.59375 
Q 11.90625 12.59375 13.171875 11.8125 
Q 14.453125 11.046875 16.203125 10.09375 
Q 17.953125 9.15625 20.34375 8.375 
Q 22.75 7.59375 26.046875 7.59375 
Q 29.703125 7.59375 32.625 8.765625 
Q 35.546875 9.953125 37.5625 12.09375 
Q 39.59375 14.25 40.671875 17.25 
Q 41.75 20.25 41.75 23.90625 
Q 41.75 27.15625 40.796875 29.75 
Q 39.84375 32.34375 37.9375 34.1875 
Q 36.046875 36.046875 33.1875 37.015625 
Q 30.34375 38 26.546875 38 
Q 21.25 38 15.25 36.09375 
L 9.09375 37.90625 
L 14.953125 71.796875 
L 49.34375 71.796875 
L 49.34375 67.546875 
Q 49.34375 65.453125 48.015625 64.125 
Q 46.703125 62.796875 43.59375 62.796875 
L 21.75 62.796875 
z
" id="Lato-Medium-53"/>
      </defs>
      <g transform="translate(578.535938 304.449219)scale(0.25 -0.25)">
       <use xlink:href="#Lato-Medium-53"/>
      </g>
     </g>
    </g>
    <g id="xtick_6">
     <g id="line2d_6">
      <g>
       <use style="stroke:#000000;stroke-width:0.8;" x="683.160938" xlink:href="#m40c07f58d0" y="279"/>
      </g>
     </g>
     <g id="text_6">
      <!-- 6 -->
      <defs>
       <path d="M 28.90625 7.34375 
Q 32.34375 7.34375 35.140625 8.46875 
Q 37.953125 9.59375 39.953125 11.546875 
Q 41.953125 13.5 43.046875 16.203125 
Q 44.15625 18.90625 44.15625 22.046875 
Q 44.15625 25.5 43.078125 28.21875 
Q 42 30.953125 40.078125 32.84375 
Q 38.15625 34.75 35.453125 35.75 
Q 32.75 36.75 29.453125 36.75 
Q 26 36.75 23.25 35.578125 
Q 20.5 34.40625 18.546875 32.421875 
Q 16.59375 30.453125 15.546875 27.796875 
Q 14.5 25.15625 14.5 22.25 
Q 14.5 18.953125 15.453125 16.203125 
Q 16.40625 13.453125 18.25 11.5 
Q 20.09375 9.546875 22.765625 8.4375 
Q 25.453125 7.34375 28.90625 7.34375 
z
M 24.296875 45.09375 
Q 23.453125 44 22.625 42.96875 
Q 21.796875 41.953125 21.046875 40.953125 
Q 23.453125 42.5 26.375 43.34375 
Q 29.296875 44.203125 32.703125 44.203125 
Q 36.953125 44.203125 40.796875 42.796875 
Q 44.65625 41.40625 47.578125 38.703125 
Q 50.5 36 52.203125 32 
Q 53.90625 28 53.90625 22.796875 
Q 53.90625 17.84375 52.09375 13.515625 
Q 50.296875 9.203125 47.015625 6.015625 
Q 43.75 2.84375 39.203125 1.015625 
Q 34.65625 -0.796875 29.09375 -0.796875 
Q 23.59375 -0.796875 19.171875 0.953125 
Q 14.75 2.703125 11.625 5.921875 
Q 8.5 9.15625 6.796875 13.71875 
Q 5.09375 18.296875 5.09375 23.90625 
Q 5.09375 28.703125 7.171875 34.015625 
Q 9.25 39.34375 13.75 45.40625 
L 31.703125 69.453125 
Q 32.453125 70.453125 33.796875 71.125 
Q 35.15625 71.796875 36.90625 71.796875 
L 45.59375 71.796875 
z
" id="Lato-Medium-54"/>
      </defs>
      <g transform="translate(683.160938 304.449219)scale(0.25 -0.25)">
       <use xlink:href="#Lato-Medium-54"/>
      </g>
     </g>
    </g>
    <g id="xtick_7">
     <g id="line2d_7">
      <g>
       <use style="stroke:#000000;stroke-width:0.8;" x="787.785938" xlink:href="#m40c07f58d0" y="279"/>
      </g>
     </g>
     <g id="text_7">
      <!-- 7 -->
      <defs>
       <path d="M 54.203125 71.796875 
L 54.203125 67.453125 
Q 54.203125 65.546875 53.765625 64.375 
Q 53.34375 63.203125 52.953125 62.34375 
L 23.84375 3.453125 
Q 23.15625 2 21.90625 1 
Q 20.65625 0 18.546875 0 
L 11.546875 0 
L 41.09375 58.046875 
Q 41.84375 59.453125 42.59375 60.625 
Q 43.34375 61.796875 44.25 62.796875 
L 7.546875 62.796875 
Q 6.59375 62.796875 5.890625 63.5 
Q 5.203125 64.203125 5.203125 65.15625 
L 5.203125 71.796875 
z
" id="Lato-Medium-55"/>
      </defs>
      <g transform="translate(787.785938 304.449219)scale(0.25 -0.25)">
       <use xlink:href="#Lato-Medium-55"/>
      </g>
     </g>
    </g>
    <g id="text_8">
     <!-- Adenines -->
     <defs>
      <path d="M 47 26.75 
L 36.34375 54.59375 
Q 35.203125 57.453125 34.046875 61.796875 
Q 33.5 59.65625 32.921875 57.796875 
Q 32.34375 55.953125 31.796875 54.5 
L 21.203125 26.75 
z
M 68.046875 0 
L 59.84375 0 
Q 58.453125 0 57.546875 0.703125 
Q 56.65625 1.40625 56.25 2.5 
L 49.90625 19.15625 
L 18.25 19.15625 
L 11.90625 2.5 
Q 11.546875 1.546875 10.59375 0.765625 
Q 9.65625 0 8.296875 0 
L 0.09375 0 
L 28.703125 71.796875 
L 39.453125 71.796875 
z
" id="Lato-Medium-65"/>
      <path d="M 39.59375 38.5 
Q 37.203125 41.65625 34.421875 42.90625 
Q 31.65625 44.15625 28.203125 44.15625 
Q 21.5 44.15625 17.828125 39.328125 
Q 14.15625 34.5 14.15625 25.25 
Q 14.15625 20.40625 14.96875 16.96875 
Q 15.796875 13.546875 17.375 11.375 
Q 18.953125 9.203125 21.25 8.171875 
Q 23.546875 7.15625 26.453125 7.15625 
Q 30.703125 7.15625 33.796875 9.046875 
Q 36.90625 10.953125 39.59375 14.40625 
z
M 49.40625 73.796875 
L 49.40625 0 
L 43.5 0 
Q 41.453125 0 40.953125 1.953125 
L 40.09375 7.796875 
Q 36.84375 3.953125 32.71875 1.625 
Q 28.59375 -0.703125 23.203125 -0.703125 
Q 18.84375 -0.703125 15.3125 1 
Q 11.796875 2.703125 9.296875 5.96875 
Q 6.796875 9.25 5.4375 14.09375 
Q 4.09375 18.953125 4.09375 25.25 
Q 4.09375 30.90625 5.59375 35.75 
Q 7.09375 40.59375 9.9375 44.140625 
Q 12.796875 47.703125 16.84375 49.71875 
Q 20.90625 51.75 26 51.75 
Q 30.59375 51.75 33.8125 50.25 
Q 37.046875 48.75 39.59375 46 
L 39.59375 73.796875 
z
" id="Lato-Medium-100"/>
      <path d="M 40.5 31.046875 
Q 40.5 33.953125 39.671875 36.390625 
Q 38.84375 38.84375 37.25 40.640625 
Q 35.65625 42.453125 33.34375 43.453125 
Q 31.046875 44.453125 28.046875 44.453125 
Q 21.90625 44.453125 18.375 40.890625 
Q 14.84375 37.34375 13.90625 31.046875 
z
M 48.546875 7.25 
Q 46.75 5.15625 44.390625 3.625 
Q 42.046875 2.09375 39.390625 1.140625 
Q 36.75 0.203125 33.921875 -0.25 
Q 31.09375 -0.703125 28.34375 -0.703125 
Q 23.09375 -0.703125 18.625 1.0625 
Q 14.15625 2.84375 10.875 6.265625 
Q 7.59375 9.703125 5.765625 14.765625 
Q 3.953125 19.84375 3.953125 26.453125 
Q 3.953125 31.75 5.59375 36.328125 
Q 7.25 40.90625 10.328125 44.296875 
Q 13.40625 47.703125 17.84375 49.640625 
Q 22.296875 51.59375 27.84375 51.59375 
Q 32.5 51.59375 36.421875 50.0625 
Q 40.34375 48.546875 43.1875 45.640625 
Q 46.046875 42.75 47.671875 38.5 
Q 49.296875 34.25 49.296875 28.796875 
Q 49.296875 26.546875 48.796875 25.765625 
Q 48.296875 25 46.953125 25 
L 13.65625 25 
Q 13.796875 20.453125 14.9375 17.078125 
Q 16.09375 13.703125 18.125 11.453125 
Q 20.15625 9.203125 22.953125 8.09375 
Q 25.75 7 29.203125 7 
Q 32.453125 7 34.828125 7.75 
Q 37.203125 8.5 38.921875 9.375 
Q 40.65625 10.25 41.828125 11 
Q 43 11.75 43.90625 11.75 
Q 45.09375 11.75 45.75 10.84375 
z
" id="Lato-Medium-101"/>
      <path d="M 16 43.75 
Q 17.65625 45.5 19.453125 46.953125 
Q 21.25 48.40625 23.265625 49.421875 
Q 25.296875 50.453125 27.625 51.015625 
Q 29.953125 51.59375 32.59375 51.59375 
Q 36.796875 51.59375 39.96875 50.1875 
Q 43.15625 48.796875 45.296875 46.265625 
Q 47.453125 43.75 48.546875 40.203125 
Q 49.65625 36.65625 49.65625 32.34375 
L 49.65625 0 
L 39.84375 0 
L 39.84375 32.34375 
Q 39.84375 37.796875 37.34375 40.8125 
Q 34.84375 43.84375 29.703125 43.84375 
Q 25.953125 43.84375 22.671875 42.0625 
Q 19.40625 40.296875 16.59375 37.25 
L 16.59375 0 
L 6.84375 0 
L 6.84375 50.796875 
L 12.703125 50.796875 
Q 14.75 50.796875 15.25 48.84375 
z
" id="Lato-Medium-110"/>
      <path d="M 17.046875 50.796875 
L 17.046875 0 
L 7.296875 0 
L 7.296875 50.796875 
z
M 18.90625 66.5 
Q 18.90625 65.15625 18.34375 63.921875 
Q 17.796875 62.703125 16.875 61.765625 
Q 15.953125 60.84375 14.703125 60.3125 
Q 13.453125 59.796875 12.09375 59.796875 
Q 10.75 59.796875 9.546875 60.3125 
Q 8.34375 60.84375 7.421875 61.765625 
Q 6.5 62.703125 5.96875 63.921875 
Q 5.453125 65.15625 5.453125 66.5 
Q 5.453125 67.90625 5.96875 69.125 
Q 6.5 70.34375 7.421875 71.265625 
Q 8.34375 72.203125 9.546875 72.71875 
Q 10.75 73.25 12.09375 73.25 
Q 13.453125 73.25 14.703125 72.71875 
Q 15.953125 72.203125 16.875 71.265625 
Q 17.796875 70.34375 18.34375 69.125 
Q 18.90625 67.90625 18.90625 66.5 
z
" id="Lato-Medium-105"/>
      <path d="M 36.796875 42.046875 
Q 36.40625 41.40625 35.953125 41.125 
Q 35.5 40.84375 34.796875 40.84375 
Q 34 40.84375 33.015625 41.390625 
Q 32.046875 41.953125 30.671875 42.59375 
Q 29.296875 43.25 27.4375 43.796875 
Q 25.59375 44.34375 23.046875 44.34375 
Q 20.953125 44.34375 19.21875 43.8125 
Q 17.5 43.296875 16.296875 42.375 
Q 15.09375 41.453125 14.4375 40.171875 
Q 13.796875 38.90625 13.796875 37.453125 
Q 13.796875 35.546875 14.921875 34.296875 
Q 16.046875 33.046875 17.875 32.140625 
Q 19.703125 31.25 22.015625 30.515625 
Q 24.34375 29.796875 26.765625 29 
Q 29.203125 28.203125 31.515625 27.171875 
Q 33.84375 26.15625 35.671875 24.625 
Q 37.5 23.09375 38.625 20.9375 
Q 39.75 18.796875 39.75 15.703125 
Q 39.75 12.15625 38.46875 9.125 
Q 37.203125 6.09375 34.71875 3.890625 
Q 32.25 1.703125 28.59375 0.453125 
Q 24.953125 -0.796875 20.25 -0.796875 
Q 15 -0.796875 10.546875 0.953125 
Q 6.09375 2.703125 3.09375 5.40625 
L 5.40625 9.15625 
Q 5.796875 9.84375 6.390625 10.21875 
Q 7 10.59375 8 10.59375 
Q 8.953125 10.59375 9.953125 9.890625 
Q 10.953125 9.203125 12.34375 8.375 
Q 13.75 7.546875 15.75 6.875 
Q 17.75 6.203125 20.75 6.203125 
Q 23.25 6.203125 25.09375 6.828125 
Q 26.953125 7.453125 28.171875 8.515625 
Q 29.40625 9.59375 30 11 
Q 30.59375 12.40625 30.59375 13.953125 
Q 30.59375 15.953125 29.46875 17.265625 
Q 28.34375 18.59375 26.515625 19.546875 
Q 24.703125 20.5 22.34375 21.203125 
Q 20 21.90625 17.546875 22.703125 
Q 15.09375 23.5 12.75 24.546875 
Q 10.40625 25.59375 8.578125 27.1875 
Q 6.75 28.796875 5.625 31.09375 
Q 4.5 33.40625 4.5 36.703125 
Q 4.5 39.65625 5.71875 42.34375 
Q 6.953125 45.046875 9.265625 47.09375 
Q 11.59375 49.15625 15.015625 50.375 
Q 18.453125 51.59375 22.84375 51.59375 
Q 27.90625 51.59375 31.96875 50 
Q 36.046875 48.40625 38.953125 45.59375 
z
" id="Lato-Medium-115"/>
     </defs>
     <g transform="translate(422.664844 331.160156)scale(0.25 -0.25)">
      <use xlink:href="#Lato-Medium-65"/>
      <use x="68.150009" xlink:href="#Lato-Medium-100"/>
      <use x="124.350021" xlink:href="#Lato-Medium-101"/>
      <use x="177.300034" xlink:href="#Lato-Medium-110"/>
      <use x="233.250046" xlink:href="#Lato-Medium-105"/>
      <use x="257.600052" xlink:href="#Lato-Medium-110"/>
      <use x="313.550064" xlink:href="#Lato-Medium-101"/>
      <use x="366.500076" xlink:href="#Lato-Medium-115"/>
     </g>
    </g>
   </g>
   <g id="matplotlib.axis_2">
    <g id="ytick_1">
     <g id="line2d_8">
      <defs>
       <path d="M 0 0 
L -3.5 0 
" id="md26effc0a5" style="stroke:#000000;stroke-width:0.8;"/>
      </defs>
      <g>
       <use style="stroke:#000000;stroke-width:0.8;" x="55.410938" xlink:href="#md26effc0a5" y="233.7"/>
      </g>
     </g>
     <g id="text_9">
      <!-- 1 -->
      <g transform="translate(33.910938 242.924609)scale(0.25 -0.25)">
       <use xlink:href="#Lato-Medium-49"/>
      </g>
     </g>
    </g>
    <g id="ytick_2">
     <g id="line2d_9">
      <g>
       <use style="stroke:#000000;stroke-width:0.8;" x="55.410938" xlink:href="#md26effc0a5" y="188.4"/>
      </g>
     </g>
     <g id="text_10">
      <!-- 2 -->
      <g transform="translate(33.910938 197.624609)scale(0.25 -0.25)">
       <use xlink:href="#Lato-Medium-50"/>
      </g>
     </g>
    </g>
    <g id="ytick_3">
     <g id="line2d_10">
      <g>
       <use style="stroke:#000000;stroke-width:0.8;" x="55.410938" xlink:href="#md26effc0a5" y="143.1"/>
      </g>
     </g>
     <g id="text_11">
      <!-- 3 -->
      <g transform="translate(33.910938 152.324609)scale(0.25 -0.25)">
       <use xlink:href="#Lato-Medium-51"/>
      </g>
     </g>
    </g>
    <g id="ytick_4">
     <g id="line2d_11">
      <g>
       <use style="stroke:#000000;stroke-width:0.8;" x="55.410938" xlink:href="#md26effc0a5" y="97.8"/>
      </g>
     </g>
     <g id="text_12">
      <!-- 4 -->
      <g transform="translate(33.910938 107.024609)scale(0.25 -0.25)">
       <use xlink:href="#Lato-Medium-52"/>
      </g>
     </g>
    </g>
    <g id="ytick_5">
     <g id="line2d_12">
      <g>
       <use style="stroke:#000000;stroke-width:0.8;" x="55.410938" xlink:href="#md26effc0a5" y="52.5"/>
      </g>
     </g>
     <g id="text_13">
      <!-- 5 -->
      <g transform="translate(33.910938 61.724609)scale(0.25 -0.25)">
       <use xlink:href="#Lato-Medium-53"/>
      </g>
     </g>
    </g>
    <g id="text_14">
     <!-- Base pairs -->
     <defs>
      <path d="M 34.5 8.453125 
Q 38.546875 8.453125 41.421875 9.390625 
Q 44.296875 10.34375 46.125 12 
Q 47.953125 13.65625 48.796875 15.921875 
Q 49.65625 18.203125 49.65625 20.90625 
Q 49.65625 26.25 45.953125 29.328125 
Q 42.25 32.40625 34.5 32.40625 
L 19.5 32.40625 
L 19.5 8.453125 
z
M 19.5 63.453125 
L 19.5 39.953125 
L 31.75 39.953125 
Q 39.59375 39.953125 43.421875 43.125 
Q 47.25 46.296875 47.25 51.703125 
Q 47.25 57.84375 43.59375 60.640625 
Q 39.953125 63.453125 32.25 63.453125 
z
M 32.25 71.796875 
Q 39 71.796875 43.828125 70.5 
Q 48.65625 69.203125 51.75 66.75 
Q 54.84375 64.296875 56.3125 60.8125 
Q 57.796875 57.34375 57.796875 52.953125 
Q 57.796875 50.34375 57 47.9375 
Q 56.203125 45.546875 54.546875 43.46875 
Q 52.90625 41.40625 50.40625 39.75 
Q 47.90625 38.09375 44.5 37 
Q 60.15625 33.90625 60.15625 20.65625 
Q 60.15625 16.046875 58.453125 12.265625 
Q 56.75 8.5 53.5 5.75 
Q 50.25 3 45.5 1.5 
Q 40.75 0 34.703125 0 
L 8.84375 0 
L 8.84375 71.796875 
z
" id="Lato-Medium-66"/>
      <path d="M 34.15625 22.546875 
Q 28.203125 22.34375 24.046875 21.625 
Q 19.90625 20.90625 17.296875 19.703125 
Q 14.703125 18.5 13.546875 16.875 
Q 12.40625 15.25 12.40625 13.25 
Q 12.40625 11.34375 13.03125 9.96875 
Q 13.65625 8.59375 14.71875 7.71875 
Q 15.796875 6.84375 17.25 6.4375 
Q 18.703125 6.046875 20.40625 6.046875 
Q 22.65625 6.046875 24.53125 6.5 
Q 26.40625 6.953125 28.046875 7.765625 
Q 29.703125 8.59375 31.203125 9.796875 
Q 32.703125 11 34.15625 12.546875 
z
M 5.546875 43.703125 
Q 9.796875 47.75 14.765625 49.75 
Q 19.75 51.75 25.703125 51.75 
Q 30.046875 51.75 33.390625 50.328125 
Q 36.75 48.90625 39.046875 46.34375 
Q 41.34375 43.796875 42.515625 40.25 
Q 43.703125 36.703125 43.703125 32.40625 
L 43.703125 0 
L 39.34375 0 
Q 37.90625 0 37.15625 0.46875 
Q 36.40625 0.953125 35.953125 2.25 
L 34.90625 6.703125 
Q 32.953125 4.90625 31.046875 3.53125 
Q 29.15625 2.15625 27.078125 1.171875 
Q 25 0.203125 22.640625 -0.296875 
Q 20.296875 -0.796875 17.453125 -0.796875 
Q 14.453125 -0.796875 11.828125 0.015625 
Q 9.203125 0.84375 7.25 2.546875 
Q 5.296875 4.25 4.171875 6.796875 
Q 3.046875 9.34375 3.046875 12.75 
Q 3.046875 15.75 4.671875 18.515625 
Q 6.296875 21.296875 9.96875 23.5 
Q 13.65625 25.703125 19.578125 27.09375 
Q 25.5 28.5 34.15625 28.703125 
L 34.15625 32.40625 
Q 34.15625 38.15625 31.703125 41 
Q 29.25 43.84375 24.5 43.84375 
Q 21.296875 43.84375 19.125 43.046875 
Q 16.953125 42.25 15.375 41.265625 
Q 13.796875 40.296875 12.625 39.5 
Q 11.453125 38.703125 10.203125 38.703125 
Q 9.203125 38.703125 8.46875 39.25 
Q 7.75 39.796875 7.296875 40.546875 
z
" id="Lato-Medium-97"/>
      <path id="Lato-Medium-32"/>
      <path d="M 16.59375 12.5 
Q 19 9.34375 21.765625 8.09375 
Q 24.546875 6.84375 28 6.84375 
Q 34.703125 6.84375 38.375 11.671875 
Q 42.046875 16.5 42.046875 25.75 
Q 42.046875 30.59375 41.21875 34.015625 
Q 40.40625 37.453125 38.828125 39.625 
Q 37.25 41.796875 34.953125 42.8125 
Q 32.65625 43.84375 29.75 43.84375 
Q 25.5 43.84375 22.375 41.9375 
Q 19.25 40.046875 16.59375 36.546875 
z
M 16.09375 43.203125 
Q 17.703125 45.09375 19.515625 46.671875 
Q 21.34375 48.25 23.4375 49.375 
Q 25.546875 50.5 27.921875 51.125 
Q 30.296875 51.75 33 51.75 
Q 37.34375 51.75 40.875 50.046875 
Q 44.40625 48.34375 46.90625 45.046875 
Q 49.40625 41.75 50.78125 36.890625 
Q 52.15625 32.046875 52.15625 25.75 
Q 52.15625 20.09375 50.625 15.265625 
Q 49.09375 10.453125 46.265625 6.890625 
Q 43.453125 3.34375 39.375 1.3125 
Q 35.296875 -0.703125 30.203125 -0.703125 
Q 25.65625 -0.703125 22.40625 0.796875 
Q 19.15625 2.296875 16.59375 5 
L 16.59375 -17.046875 
L 6.84375 -17.046875 
L 6.84375 50.796875 
L 12.703125 50.796875 
Q 14.75 50.796875 15.25 48.84375 
z
" id="Lato-Medium-112"/>
      <path d="M 16.046875 41.046875 
Q 18.5 46.046875 21.953125 48.890625 
Q 25.40625 51.75 30.25 51.75 
Q 31.90625 51.75 33.375 51.375 
Q 34.84375 51 35.953125 50.25 
L 35.296875 42.90625 
Q 34.953125 41.546875 33.65625 41.546875 
Q 32.953125 41.546875 31.546875 41.8125 
Q 30.15625 42.09375 28.546875 42.09375 
Q 26.203125 42.09375 24.390625 41.421875 
Q 22.59375 40.75 21.171875 39.421875 
Q 19.75 38.09375 18.640625 36.171875 
Q 17.546875 34.25 16.59375 31.796875 
L 16.59375 0 
L 6.84375 0 
L 6.84375 50.796875 
L 12.453125 50.796875 
Q 14.046875 50.796875 14.625 50.21875 
Q 15.203125 49.65625 15.453125 48.203125 
z
" id="Lato-Medium-114"/>
     </defs>
     <g transform="translate(25.649219 199.002344)rotate(-90)scale(0.25 -0.25)">
      <use xlink:href="#Lato-Medium-66"/>
      <use x="64.950012" xlink:href="#Lato-Medium-97"/>
      <use x="114.900024" xlink:href="#Lato-Medium-115"/>
      <use x="158.350021" xlink:href="#Lato-Medium-101"/>
      <use x="211.300034" xlink:href="#Lato-Medium-32"/>
      <use x="236.550034" xlink:href="#Lato-Medium-112"/>
      <use x="292.800034" xlink:href="#Lato-Medium-97"/>
      <use x="342.750046" xlink:href="#Lato-Medium-105"/>
      <use x="367.100052" xlink:href="#Lato-Medium-114"/>
      <use x="403.750061" xlink:href="#Lato-Medium-115"/>
     </g>
    </g>
   </g>
   <g id="patch_3">
    <path d="M 55.410938 279 
L 55.410938 7.2 
" style="fill:none;stroke:#000000;stroke-linecap:square;stroke-linejoin:miter;stroke-width:0.8;"/>
   </g>
   <g id="patch_4">
    <path d="M 892.410938 279 
L 892.410938 7.2 
" style="fill:none;stroke:#000000;stroke-linecap:square;stroke-linejoin:miter;stroke-width:0.8;"/>
   </g>
   <g id="patch_5">
    <path d="M 55.410938 279 
L 892.410938 279 
" style="fill:none;stroke:#000000;stroke-linecap:square;stroke-linejoin:miter;stroke-width:0.8;"/>
   </g>
   <g id="patch_6">
    <path d="M 55.410938 7.2 
L 892.410938 7.2 
" style="fill:none;stroke:#000000;stroke-linecap:square;stroke-linejoin:miter;stroke-width:0.8;"/>
   </g>
   <g id="text_15">
    <!-- 878 -->
    <defs>
     <path d="M 31.78125 34.625 
Q 24.75 34.625 20.71875 30.859375 
Q 16.703125 27.09375 16.703125 20.515625 
Q 16.703125 13.921875 20.71875 10.15625 
Q 24.75 6.390625 31.78125 6.390625 
Q 38.8125 6.390625 42.859375 10.171875 
Q 46.921875 13.96875 46.921875 20.515625 
Q 46.921875 27.09375 42.890625 30.859375 
Q 38.875 34.625 31.78125 34.625 
z
M 21.921875 38.8125 
Q 15.578125 40.375 12.03125 44.71875 
Q 8.5 49.078125 8.5 55.328125 
Q 8.5 64.0625 14.71875 69.140625 
Q 20.953125 74.21875 31.78125 74.21875 
Q 42.671875 74.21875 48.875 69.140625 
Q 55.078125 64.0625 55.078125 55.328125 
Q 55.078125 49.078125 51.53125 44.71875 
Q 48 40.375 41.703125 38.8125 
Q 48.828125 37.15625 52.796875 32.3125 
Q 56.78125 27.484375 56.78125 20.515625 
Q 56.78125 9.90625 50.3125 4.234375 
Q 43.84375 -1.421875 31.78125 -1.421875 
Q 19.734375 -1.421875 13.25 4.234375 
Q 6.78125 9.90625 6.78125 20.515625 
Q 6.78125 27.484375 10.78125 32.3125 
Q 14.796875 37.15625 21.921875 38.8125 
z
M 18.3125 54.390625 
Q 18.3125 48.734375 21.84375 45.5625 
Q 25.390625 42.390625 31.78125 42.390625 
Q 38.140625 42.390625 41.71875 45.5625 
Q 45.3125 48.734375 45.3125 54.390625 
Q 45.3125 60.0625 41.71875 63.234375 
Q 38.140625 66.40625 31.78125 66.40625 
Q 25.390625 66.40625 21.84375 63.234375 
Q 18.3125 60.0625 18.3125 54.390625 
z
" id="DejaVuSans-56"/>
     <path d="M 8.203125 72.90625 
L 55.078125 72.90625 
L 55.078125 68.703125 
L 28.609375 0 
L 18.3125 0 
L 43.21875 64.59375 
L 8.203125 64.59375 
z
" id="DejaVuSans-55"/>
    </defs>
    <g transform="translate(133.429091 243.951697)scale(0.27 -0.27)">
     <use xlink:href="#DejaVuSans-56"/>
     <use x="63.623047" xlink:href="#DejaVuSans-55"/>
     <use x="127.246094" xlink:href="#DejaVuSans-56"/>
    </g>
   </g>
   <g id="text_16">
    <!-- 12 -->
    <defs>
     <path d="M 12.40625 8.296875 
L 28.515625 8.296875 
L 28.515625 63.921875 
L 10.984375 60.40625 
L 10.984375 69.390625 
L 28.421875 72.90625 
L 38.28125 72.90625 
L 38.28125 8.296875 
L 54.390625 8.296875 
L 54.390625 0 
L 12.40625 0 
z
" id="DejaVuSans-49"/>
     <path d="M 19.1875 8.296875 
L 53.609375 8.296875 
L 53.609375 0 
L 7.328125 0 
L 7.328125 8.296875 
Q 12.9375 14.109375 22.625 23.890625 
Q 32.328125 33.6875 34.8125 36.53125 
Q 39.546875 41.84375 41.421875 45.53125 
Q 43.3125 49.21875 43.3125 52.78125 
Q 43.3125 58.59375 39.234375 62.25 
Q 35.15625 65.921875 28.609375 65.921875 
Q 23.96875 65.921875 18.8125 64.3125 
Q 13.671875 62.703125 7.8125 59.421875 
L 7.8125 69.390625 
Q 13.765625 71.78125 18.9375 73 
Q 24.125 74.21875 28.421875 74.21875 
Q 39.75 74.21875 46.484375 68.546875 
Q 53.21875 62.890625 53.21875 53.421875 
Q 53.21875 48.921875 51.53125 44.890625 
Q 49.859375 40.875 45.40625 35.40625 
Q 44.1875 33.984375 37.640625 27.21875 
Q 31.109375 20.453125 19.1875 8.296875 
z
" id="DejaVuSans-50"/>
    </defs>
    <g transform="translate(154.010799 191.221644)scale(0.102132 -0.102132)">
     <use xlink:href="#DejaVuSans-49"/>
     <use x="63.623047" xlink:href="#DejaVuSans-50"/>
    </g>
   </g>
   <g id="text_17">
    <!-- 46 -->
    <defs>
     <path d="M 37.796875 64.3125 
L 12.890625 25.390625 
L 37.796875 25.390625 
z
M 35.203125 72.90625 
L 47.609375 72.90625 
L 47.609375 25.390625 
L 58.015625 25.390625 
L 58.015625 17.1875 
L 47.609375 17.1875 
L 47.609375 0 
L 37.796875 0 
L 37.796875 17.1875 
L 4.890625 17.1875 
L 4.890625 26.703125 
z
" id="DejaVuSans-52"/>
     <path d="M 33.015625 40.375 
Q 26.375 40.375 22.484375 35.828125 
Q 18.609375 31.296875 18.609375 23.390625 
Q 18.609375 15.53125 22.484375 10.953125 
Q 26.375 6.390625 33.015625 6.390625 
Q 39.65625 6.390625 43.53125 10.953125 
Q 47.40625 15.53125 47.40625 23.390625 
Q 47.40625 31.296875 43.53125 35.828125 
Q 39.65625 40.375 33.015625 40.375 
z
M 52.59375 71.296875 
L 52.59375 62.3125 
Q 48.875 64.0625 45.09375 64.984375 
Q 41.3125 65.921875 37.59375 65.921875 
Q 27.828125 65.921875 22.671875 59.328125 
Q 17.53125 52.734375 16.796875 39.40625 
Q 19.671875 43.65625 24.015625 45.921875 
Q 28.375 48.1875 33.59375 48.1875 
Q 44.578125 48.1875 50.953125 41.515625 
Q 57.328125 34.859375 57.328125 23.390625 
Q 57.328125 12.15625 50.6875 5.359375 
Q 44.046875 -1.421875 33.015625 -1.421875 
Q 20.359375 -1.421875 13.671875 8.265625 
Q 6.984375 17.96875 6.984375 36.375 
Q 6.984375 53.65625 15.1875 63.9375 
Q 23.390625 74.21875 37.203125 74.21875 
Q 40.921875 74.21875 44.703125 73.484375 
Q 48.484375 72.75 52.59375 71.296875 
z
" id="DejaVuSans-54"/>
    </defs>
    <g transform="translate(258.434598 236.848849)scale(0.108723 -0.108723)">
     <use xlink:href="#DejaVuSans-52"/>
     <use x="63.623047" xlink:href="#DejaVuSans-54"/>
    </g>
   </g>
   <g id="text_18">
    <!-- 389 -->
    <defs>
     <path d="M 40.578125 39.3125 
Q 47.65625 37.796875 51.625 33 
Q 55.609375 28.21875 55.609375 21.1875 
Q 55.609375 10.40625 48.1875 4.484375 
Q 40.765625 -1.421875 27.09375 -1.421875 
Q 22.515625 -1.421875 17.65625 -0.515625 
Q 12.796875 0.390625 7.625 2.203125 
L 7.625 11.71875 
Q 11.71875 9.328125 16.59375 8.109375 
Q 21.484375 6.890625 26.8125 6.890625 
Q 36.078125 6.890625 40.9375 10.546875 
Q 45.796875 14.203125 45.796875 21.1875 
Q 45.796875 27.640625 41.28125 31.265625 
Q 36.765625 34.90625 28.71875 34.90625 
L 20.21875 34.90625 
L 20.21875 43.015625 
L 29.109375 43.015625 
Q 36.375 43.015625 40.234375 45.921875 
Q 44.09375 48.828125 44.09375 54.296875 
Q 44.09375 59.90625 40.109375 62.90625 
Q 36.140625 65.921875 28.71875 65.921875 
Q 24.65625 65.921875 20.015625 65.03125 
Q 15.375 64.15625 9.8125 62.3125 
L 9.8125 71.09375 
Q 15.4375 72.65625 20.34375 73.4375 
Q 25.25 74.21875 29.59375 74.21875 
Q 40.828125 74.21875 47.359375 69.109375 
Q 53.90625 64.015625 53.90625 55.328125 
Q 53.90625 49.265625 50.4375 45.09375 
Q 46.96875 40.921875 40.578125 39.3125 
z
" id="DejaVuSans-51"/>
     <path d="M 10.984375 1.515625 
L 10.984375 10.5 
Q 14.703125 8.734375 18.5 7.8125 
Q 22.3125 6.890625 25.984375 6.890625 
Q 35.75 6.890625 40.890625 13.453125 
Q 46.046875 20.015625 46.78125 33.40625 
Q 43.953125 29.203125 39.59375 26.953125 
Q 35.25 24.703125 29.984375 24.703125 
Q 19.046875 24.703125 12.671875 31.3125 
Q 6.296875 37.9375 6.296875 49.421875 
Q 6.296875 60.640625 12.9375 67.421875 
Q 19.578125 74.21875 30.609375 74.21875 
Q 43.265625 74.21875 49.921875 64.515625 
Q 56.59375 54.828125 56.59375 36.375 
Q 56.59375 19.140625 48.40625 8.859375 
Q 40.234375 -1.421875 26.421875 -1.421875 
Q 22.703125 -1.421875 18.890625 -0.6875 
Q 15.09375 0.046875 10.984375 1.515625 
z
M 30.609375 32.421875 
Q 37.25 32.421875 41.125 36.953125 
Q 45.015625 41.5 45.015625 49.421875 
Q 45.015625 57.28125 41.125 61.84375 
Q 37.25 66.40625 30.609375 66.40625 
Q 23.96875 66.40625 20.09375 61.84375 
Q 16.21875 57.28125 16.21875 49.421875 
Q 16.21875 41.5 20.09375 36.953125 
Q 23.96875 32.421875 30.609375 32.421875 
z
" id="DejaVuSans-57"/>
    </defs>
    <g transform="translate(248.550936 194.922226)scale(0.175211 -0.175211)">
     <use xlink:href="#DejaVuSans-51"/>
     <use x="63.623047" xlink:href="#DejaVuSans-56"/>
     <use x="127.246094" xlink:href="#DejaVuSans-57"/>
    </g>
   </g>
   <g id="text_19">
    <!-- 1 -->
    <g transform="translate(261.804675 145.69569)scale(0.1 -0.1)">
     <use xlink:href="#DejaVuSans-49"/>
    </g>
   </g>
   <g id="text_20">
    <!-- 2 -->
    <g transform="translate(366.113314 236.115566)scale(0.100194 -0.100194)">
     <use xlink:href="#DejaVuSans-50"/>
    </g>
   </g>
   <g id="text_21">
    <!-- 71 -->
    <g transform="translate(361.80411 192.092443)scale(0.113569 -0.113569)">
     <use xlink:href="#DejaVuSans-55"/>
     <use x="63.623047" xlink:href="#DejaVuSans-49"/>
    </g>
   </g>
   <g id="text_22">
    <!-- 54 -->
    <defs>
     <path d="M 10.796875 72.90625 
L 49.515625 72.90625 
L 49.515625 64.59375 
L 19.828125 64.59375 
L 19.828125 46.734375 
Q 21.96875 47.46875 24.109375 47.828125 
Q 26.265625 48.1875 28.421875 48.1875 
Q 40.625 48.1875 47.75 41.5 
Q 54.890625 34.8125 54.890625 23.390625 
Q 54.890625 11.625 47.5625 5.09375 
Q 40.234375 -1.421875 26.90625 -1.421875 
Q 22.3125 -1.421875 17.546875 -0.640625 
Q 12.796875 0.140625 7.71875 1.703125 
L 7.71875 11.625 
Q 12.109375 9.234375 16.796875 8.0625 
Q 21.484375 6.890625 26.703125 6.890625 
Q 35.15625 6.890625 40.078125 11.328125 
Q 45.015625 15.765625 45.015625 23.390625 
Q 45.015625 31 40.078125 35.4375 
Q 35.15625 39.890625 26.703125 39.890625 
Q 22.75 39.890625 18.8125 39.015625 
Q 14.890625 38.140625 10.796875 36.28125 
z
" id="DejaVuSans-53"/>
    </defs>
    <g transform="translate(362.376102 146.617265)scale(0.110274 -0.110274)">
     <use xlink:href="#DejaVuSans-53"/>
     <use x="63.623047" xlink:href="#DejaVuSans-52"/>
    </g>
   </g>
   <g id="text_23">
    <!-- 6 -->
    <g transform="translate(366.054984 100.603222)scale(0.100969 -0.100969)">
     <use xlink:href="#DejaVuSans-54"/>
    </g>
   </g>
   <g id="text_24">
    <!-- 7 -->
    <g transform="translate(470.843962 190.996324)scale(0.101163 -0.101163)">
     <use xlink:href="#DejaVuSans-55"/>
    </g>
   </g>
   <g id="text_25">
    <!-- 19 -->
    <g transform="translate(467.861524 145.900444)scale(0.103489 -0.103489)">
     <use xlink:href="#DejaVuSans-49"/>
     <use x="63.623047" xlink:href="#DejaVuSans-57"/>
    </g>
   </g>
   <g id="text_26">
    <!-- 8 -->
    <g transform="translate(470.704441 100.230233)scale(0.101357 -0.101357)">
     <use xlink:href="#DejaVuSans-56"/>
    </g>
   </g>
   <g id="text_27">
    <!-- 2 -->
    <g transform="translate(575.886439 145.832666)scale(0.100194 -0.100194)">
     <use xlink:href="#DejaVuSans-50"/>
    </g>
   </g>
   <g id="text_28">
    <!-- 6 -->
    <g transform="translate(574.572609 100.875022)scale(0.100969 -0.100969)">
     <use xlink:href="#DejaVuSans-54"/>
    </g>
   </g>
   <g id="text_29">
    <!-- 1 -->
    <g transform="translate(575.679675 54.64269)scale(0.1 -0.1)">
     <use xlink:href="#DejaVuSans-49"/>
    </g>
   </g>
   <g id="text_30">
    <!-- 1 -->
    <g transform="translate(680.304675 54.64269)scale(0.1 -0.1)">
     <use xlink:href="#DejaVuSans-49"/>
    </g>
   </g>
   <g id="text_31">
    <!-- 1 -->
    <g transform="translate(784.929675 54.64269)scale(0.1 -0.1)">
     <use xlink:href="#DejaVuSans-49"/>
    </g>
   </g>
  </g>
 </g>
 <defs>
  <clipPath id="p86e78e7ce8">
   <rect height="271.8" width="837" x="55.410938" y="7.2"/>
  </clipPath>
 </defs>
</svg>
